<?xml version="1.0" encoding="iso-8859-1"?>
<!-- Generator: Adobe Illustrator 19.0.0, SVG Export Plug-In . SVG Version: 6.00 Build 0)  -->
<svg version="1.1" id="Layer_1" xmlns="http://www.w3.org/2000/svg" xmlns:xlink="http://www.w3.org/1999/xlink" x="0px" y="0px"
	 viewBox="0 0 495 495" style="enable-background:new 0 0 495 495;" xml:space="preserve">
<g>
	<polygon style="fill:#1E81CE;" points="247.5,0 247.5,40 455,40 455,455 247.5,455 247.5,495 495,495 495,0 	"/>
	<polygon style="fill:#5AAAE7;" points="40,455 40,40 247.5,40 247.5,0 0,0 0,495 247.5,495 247.5,455 	"/>
	<path style="fill:#5AAAE7;" d="M317.867,242.242l10.602,44.864l10.874,50.586l-50.575-10.875l-44.886-10.559L122.748,195.126
		c-8.938,19.002-13.965,40.205-13.965,62.596c0,81.337,65.94,147.277,147.288,147.277c81.337,0,147.277-65.94,147.277-147.277
		s-65.94-147.277-147.277-147.277c-20.612,0-40.226,4.249-58.043,11.895l119.829,119.816
		C317.857,242.156,317.911,242.22,317.867,242.242z"/>
	<path style="fill:#5AAAE7;" d="M320.223,284.14l-7.897-34.674c-27.187,12.484-48.725,34.023-61.199,61.209l34.674,7.896
		C293.163,303.847,305.51,291.503,320.223,284.14z"/>
	<path style="fill:#5AAAE7;" d="M198.027,122.34L165.69,90c-30.089,18.604-55.435,43.949-74.038,74.039l31.096,31.088
		C138.051,162.587,164.901,136.558,198.027,122.34z"/>
</g>
<g>
</g>
<g>
</g>
<g>
</g>
<g>
</g>
<g>
</g>
<g>
</g>
<g>
</g>
<g>
</g>
<g>
</g>
<g>
</g>
<g>
</g>
<g>
</g>
<g>
</g>
<g>
</g>
<g>
</g>
</svg>
