<?xml version="1.0" encoding="iso-8859-1"?>
<!-- Generator: Adobe Illustrator 19.0.0, SVG Export Plug-In . SVG Version: 6.00 Build 0)  -->
<svg version="1.1" id="Capa_1" xmlns="http://www.w3.org/2000/svg" xmlns:xlink="http://www.w3.org/1999/xlink" x="0px" y="0px"
	 viewBox="0 0 512 512" style="enable-background:new 0 0 512 512;" xml:space="preserve">
<g>
	<g>
		<g>
			<path d="M482,216V96H382h-30v30h30v96.972L362.458,236H352v-80H120v68.787L101.213,206H0v29.542l40,60V336h404.5l67.5-90v-30H482
				z M322,236H150v-50h172V236z"/>
			<path d="M447.996,386c-11.699,0-16.881-3.238-24.053-7.72c-8.754-5.471-19.648-12.28-39.951-12.28s-31.197,6.809-39.951,12.28
				c-7.171,4.482-12.353,7.72-24.051,7.72c-11.697,0-16.878-3.238-24.049-7.72c-8.754-5.471-19.648-12.28-39.95-12.28
				c-20.301,0-31.195,6.809-39.948,12.28c-7.17,4.481-12.351,7.72-24.048,7.72c-11.697,0-16.878-3.238-24.049-7.72
				c-8.754-5.471-19.648-12.28-39.95-12.28s-31.196,6.809-39.95,12.28c-7.171,4.481-12.352,7.72-24.049,7.72
				c-11.697,0-16.878-3.238-24.049-7.72C31.195,372.809,20.301,366,0,366v30c11.697,0,16.877,3.238,24.048,7.72
				C32.802,409.191,43.695,416,63.997,416s31.195-6.809,39.949-12.28c7.171-4.482,12.352-7.72,24.05-7.72
				c11.698,0,16.879,3.238,24.05,7.72c8.754,5.471,19.647,12.28,39.949,12.28c20.301,0,31.195-6.809,39.948-12.28
				c7.17-4.481,12.351-7.72,24.048-7.72c11.698,0,16.879,3.238,24.05,7.72c8.754,5.471,19.647,12.28,39.949,12.28
				c20.303,0,31.197-6.809,39.951-12.28c7.171-4.482,12.353-7.72,24.051-7.72c11.699,0,16.881,3.238,24.053,7.72
				c8.754,5.471,19.648,12.28,39.951,12.28s31.197-6.809,39.951-12.28c7.172-4.482,12.354-7.72,24.053-7.72v-30
				c-20.303,0-31.197,6.809-39.951,12.28C464.877,382.762,459.695,386,447.996,386z"/>
		</g>
	</g>
</g>
<g>
</g>
<g>
</g>
<g>
</g>
<g>
</g>
<g>
</g>
<g>
</g>
<g>
</g>
<g>
</g>
<g>
</g>
<g>
</g>
<g>
</g>
<g>
</g>
<g>
</g>
<g>
</g>
<g>
</g>
</svg>
