<svg xmlns="http://www.w3.org/2000/svg" xmlns:xlink="http://www.w3.org/1999/xlink" viewBox="0 0 176 35" id="spr-logo_ru">
<path id="spr-logo_ru_Fill-1" d="M33.2,12.8c0.3-3,3.2-5.3,7.5-5.3c4.8,0,7.9,2.8,7.9,7.1c0,4.3-3.1,7.1-7.9,7.1  c-4.3,0-7.2-2.3-7.6-5.6h3.6c0.2,1.8,1.7,2.8,4,2.8c2.3,0,3.9-1.2,4.3-3.3h-5.5v-2.8h5.5c-0.5-1.6-2.2-2.6-4.2-2.6  c-2.2,0-3.5,0.9-3.9,2.5H33.2z"></path>
<polygon id="spr-logo_ru_Fill-3" points="52.7,13 58.2,7.8 62.5,7.8 56.7,13.1 63.2,21.3 59.2,21.3 54.4,15.1 52.7,16.6   52.7,21.3 49.4,21.3 49.4,7.8 52.7,7.8 "></polygon>
<path id="spr-logo_ru_Fill-5" d="M73,12.8c-0.4-1.6-1.8-2.5-3.9-2.5c-2.6,0-4.3,1.6-4.3,4.3c0,2.7,1.6,4.3,4.3,4.3  c2.3,0,3.8-1.1,4-2.8h3.6c-0.3,3.3-3.3,5.6-7.6,5.6c-4.8,0-7.9-2.8-7.9-7.1c0-4.3,3.1-7.1,7.9-7.1c4.3,0,7.2,2.2,7.5,5.3H73z"></path>
<polygon id="spr-logo_ru_Fill-7" points="90.5,7.8 90.5,21.3 87.2,21.3 87.2,10.6 80.9,10.6 80.9,21.3 77.6,21.3 77.6,7.8 "></polygon>
<path id="spr-logo_ru_Fill-9" d="M107.1,14.6c0,4.3-3,7.1-7.9,7.1c-4.8,0-7.9-2.8-7.9-7.1c0-4.3,3.1-7.1,7.9-7.1  C104.1,7.5,107.1,10.3,107.1,14.6 M95,14.6c0,2.7,1.6,4.3,4.3,4.3c2.6,0,4.3-1.6,4.3-4.3c0-2.7-1.6-4.3-4.3-4.3  C96.6,10.3,95,11.9,95,14.6"></path>
<polygon id="spr-logo_ru_Fill-11" points="111.3,18.5 117.7,18.5 117.7,7.8 121,7.8 121,18.5 122.5,18.5 122.5,23.3 119.3,23.3   119.3,21.3 108,21.3 108,7.8 111.3,7.8 "></polygon>
<polygon id="spr-logo_ru_Fill-13" points="135.1,7.8 135.1,10.6 126.7,10.6 126.7,12.8 134.2,12.8 134.2,15.6 126.7,15.6   126.7,18.5 135.1,18.5 135.1,21.3 123.4,21.3 123.4,7.8 "></polygon>
<polygon id="spr-logo_ru_Fill-15" points="139.4,12.8 145.7,12.8 145.7,7.8 149,7.8 149,21.3 145.7,21.3 145.7,15.6 139.4,15.6   139.4,21.3 136.1,21.3 136.1,7.8 139.4,7.8 "></polygon>
<polygon id="spr-logo_ru_Fill-17" points="162.3,7.8 162.3,10.6 157.8,10.6 157.8,21.3 154.5,21.3 154.5,10.6 150,10.6 150,7.8   "></polygon>
<path id="spr-logo_ru_Fill-19" d="M163.2,7.8h7.8c3.1,0,4.8,1.7,4.8,4.6c0,2.9-1.8,4.6-4.8,4.6h-4.5v4.2h-3.3V7.8z M166.5,14.3h3  c2.1,0,3-0.4,3-1.8c0-1.5-0.8-1.9-2.8-1.9h-3.3V14.3z"></path>
<g id="spr-logo_ru_Group-23" transform="translate(1.000000, 0.453300)">
	<path id="spr-logo_ru_Fill-21" d="M0.2,9.2l8.5,2.8c1.1,0.4,2.3,0.2,3.2-0.5c0.9-0.7,1.4-1.7,1.4-2.9v-9.2h-3v9.2   c0,0.2-0.1,0.3-0.2,0.4C10,9.2,9.8,9.2,9.6,9.2L1.1,6.4L0.2,9.2z"></path>
</g>
<g id="spr-logo_ru_Group-26" transform="translate(15.000000, 0.453300)">
	<path id="spr-logo_ru_Fill-24" d="M12.4,6.4L3.9,9.2C3.7,9.2,3.5,9.2,3.4,9.1C3.2,9,3.1,8.9,3.1,8.7v-9.2h-3v9.2   c0,1.1,0.5,2.2,1.4,2.9c0.9,0.7,2.1,0.9,3.2,0.5l8.5-2.8L12.4,6.4z"></path>
</g>
<path id="spr-logo_ru_Fill-27" d="M22.8,26.8l-5.3-7.3c-0.7-1-1.7-1.5-2.9-1.5c-1.1,0-2.2,0.6-2.8,1.5l-5.3,7.4L9,28.6l5.3-7.4  c0.1-0.1,0.2-0.2,0.4-0.2c0.2,0,0.3,0.1,0.5,0.3l5.2,7.3L22.8,26.8z"></path>
<path id="spr-logo_ru_Fill-29" d="M28.6,10.5l-8.5,2.8c-1.1,0.4-2,1.2-2.3,2.3c-0.3,1.1-0.2,2.3,0.5,3.2l5.3,7.4l2.4-1.8  l-5.3-7.4c-0.1-0.1-0.1-0.3-0.1-0.5c0.1-0.2,0.2-0.3,0.4-0.4l8.5-2.8L28.6,10.5z"></path>
<path id="spr-logo_ru_Fill-31" d="M0,13.4l8.5,2.8c0.2,0.1,0.4,0.2,0.4,0.4c0.1,0.2,0,0.3-0.1,0.5l-5.3,7.4l2.4,1.8l5.3-7.4  c0.6-0.9,0.8-2.1,0.5-3.2c-0.3-1.1-1.2-1.9-2.3-2.3l-8.5-2.8L0,13.4z"></path>
<path id="spr-logo_ru_Fill-33" d="M141.9,34.9l-0.3-4.6c0-0.5-0.1-1.1-0.1-1.3c-0.1,0.2-0.1,0.7-0.3,1.2l-1.3,4.7h-1l-1.2-4.5  c-0.1-0.5-0.3-1.2-0.3-1.4c0,0.2,0,1-0.1,1.4l-0.3,4.5h-1.2l0.7-7.5h1.6l1.1,4.2c0.2,0.6,0.2,1.1,0.3,1.3c0-0.2,0.1-0.7,0.3-1.3  l1.2-4.3h1.6l0.6,7.5H141.9z"></path>
<g id="spr-logo_ru_Group-37" transform="translate(144.000000, 27.453300)">
	<path id="spr-logo_ru_Fill-35" d="M3.4,7.5c-2.1,0-3.1-1.6-3.1-3.9c0-2.5,1.2-3.8,3.1-3.8c2.1,0,3.1,1.7,3.1,3.9   C6.4,6,5.3,7.5,3.4,7.5 M3.4,0.8c-1.3,0-1.7,1-1.7,2.8c0,1.9,0.5,3,1.8,3c1.1,0,1.7-0.8,1.7-2.8C5.1,1.9,4.7,0.8,3.4,0.8"></path>
</g>
<g id="spr-logo_ru_Group-40" transform="translate(151.000000, 27.453300)">
	<path id="spr-logo_ru_Fill-38" d="M3.6,7.5c-1,0-1.8-0.4-2.3-1.1C0.8,5.8,0.5,4.9,0.5,3.8c0-0.9,0.2-1.6,0.5-2.3   c0.6-1.1,1.6-1.7,2.7-1.7c0.7,0,1.4,0.2,1.8,0.6L4.9,1.2C4.5,0.9,4.1,0.8,3.7,0.8c-0.6,0-1.1,0.3-1.5,0.9C2,2.2,1.8,2.8,1.8,3.7   c0,0.9,0.1,1.4,0.3,1.8c0.3,0.7,0.9,1.1,1.6,1.1c0.5,0,0.9-0.1,1.3-0.5l0.6,0.8C5.1,7.3,4.4,7.5,3.6,7.5"></path>
</g>
<path id="spr-logo_ru_Fill-41" d="M163.1,28.2l-0.3,0.1c-0.1,0-0.3,0.1-0.4,0.2c-0.1,0.1-0.2,0.3-0.2,0.5l-0.2,0.8  c-0.1,0.3-0.1,0.6-0.4,0.9c-0.1,0.1-0.3,0.2-0.5,0.3v0c0.1,0.1,0.3,0.1,0.5,0.3c0.3,0.3,0.4,0.5,0.5,0.9l0.3,1.2  c0.1,0.3,0.1,0.4,0.2,0.5c0.1,0.1,0.3,0.2,0.4,0.2l0.3,0.1L163,35l-0.4,0c-0.4,0-0.8-0.1-1.2-0.4c-0.3-0.3-0.3-0.7-0.4-1l-0.2-1.1  c-0.1-0.2-0.1-0.6-0.3-0.7c-0.2-0.2-0.5-0.2-0.7-0.2H159v3.5h-1.2v-7.5h1.2v3h0.8c0.2,0,0.5,0,0.7-0.2c0.2-0.2,0.2-0.5,0.3-0.7  l0.2-0.9c0.1-0.2,0.1-0.6,0.4-0.9c0.2-0.2,0.5-0.3,0.9-0.3l0.4-0.1L163.1,28.2z"></path>
<path id="spr-logo_ru_Fill-43" d="M166.4,34.9h-2.1v-7.5h1.9c1.1,0,1.5,0.1,1.9,0.4c0.6,0.4,0.8,0.8,0.8,1.5  c0,0.8-0.4,1.4-1.3,1.6c1.2,0.3,1.6,1.1,1.6,1.9C169.3,34.3,168.3,34.9,166.4,34.9 M167.1,28.5c-0.1-0.1-0.3-0.1-0.7-0.1h-0.9v2.1h1  c0.4,0,0.7,0,0.9-0.3c0.2-0.2,0.3-0.6,0.3-0.7C167.7,29,167.5,28.6,167.1,28.5 M167.3,31.6c-0.2-0.1-0.3-0.1-0.7-0.1h-1.1v2.4h1.1  c0.9,0,1.3-0.5,1.3-1.2C168,32.1,167.7,31.7,167.3,31.6"></path>
<path id="spr-logo_ru_Fill-45" d="M174.7,34.9l-0.6-2h-2.4l-0.6,2h-1.3l2.4-7.5h1.4l2.4,7.5H174.7z M173.8,31.9  c-0.3-1.1-0.6-2.2-0.9-3.3c-0.3,1.1-0.6,2.2-0.9,3.3H173.8z"></path>
</svg>