<?xml version="1.0" encoding="UTF-8"?>
<!DOCTYPE svg PUBLIC "-//W3C//DTD SVG 1.1//EN" "http://www.w3.org/Graphics/SVG/1.1/DTD/svg11.dtd">
<!-- Creator: CorelDRAW 2019 (64-Bit) -->
<svg xmlns="http://www.w3.org/2000/svg" xml:space="preserve" width="600mm" height="600mm" version="1.1" style="shape-rendering:geometricPrecision; text-rendering:geometricPrecision; image-rendering:optimizeQuality; fill-rule:evenodd; clip-rule:evenodd"
viewBox="0 0 60000 60000"
 xmlns:xlink="http://www.w3.org/1999/xlink">
 <defs>
  <style type="text/css">
   <![CDATA[
    .str0 {stroke:#005493;stroke-width:7.62;stroke-miterlimit:10}
    .fil1 {fill:#FEFEFE;fill-rule:nonzero}
    .fil0 {fill:#005493;fill-rule:nonzero}
   ]]>
  </style>
 </defs>
 <g id="Слой_x0020_1">
  <metadata id="CorelCorpID_0Corel-Layer"/>
  <g id="_3249584148016">
   <path class="fil0" d="M18744.24 14880.44l1919.91 -3.01 68.66 -76.9c297.02,-443.37 787.35,-890.16 1027.82,-1352.01l-9.57 -1.08 -5172.56 0 12.71 77.14c229.45,746.35 906.78,1302.5 1730.45,1338.22l422.58 17.64z"/>
   <path class="fil0 str0" d="M17464.26 12981.91l4437.72 0c-5.12,-137.67 -44.87,-356.04 -134.48,-498.82 -409.22,-670.71 -1813.08,-573.63 -2710.52,-753.57 -1093.47,-182.72 -3278.54,-547.07 -3278.54,-547.07l-195.48 -37.4 0 114.73c85.21,930.56 845.35,1678.83 1804.58,1720.02l76.72 2.11z"/>
   <path class="fil0 str0" d="M20704.86 17478.76l-96.05 -262.81c-197.35,-546.82 -212.23,-1395.37 -85.82,-1941.59l-2617.65 -25.95 16.98 75.64c212.47,1026.13 1025.3,1836.86 2068.66,2044.87 96.66,19.15 545.14,114.3 713.88,109.84z"/>
   <path class="fil0 str0" d="M41872.58 15248.1l-2407.29 26.14c137.25,593.62 107.92,1543.94 -141.28,2076.55l-52.46 111.53 430.42 -51.43c1183.14,-101.77 2131.77,-965.79 2363.75,-2086.91l19.15 -75.88 -212.29 0z"/>
   <path class="fil0 str0" d="M43202.07 13447.38l-4964.85 0 -9.57 1.02c240.53,461.91 730.62,908.89 1027.64,1352.31l48 79.61 2285.58 0c134.72,0 276.43,-35.89 322.74,-43.96 711.05,-123.64 1279.2,-640.95 1485.28,-1311.66l10.18 -77.32 -205 0z"/>
   <path class="fil0" d="M44209.84 11182.51c-1091.84,182.9 -2185.07,364.35 -3278.6,546.88 -897.38,180.13 -2301.3,82.81 -2710.7,753.58 -89.67,142.96 -129.18,282.98 -134.48,420.65l0 70.28 341.65 0.67 4096.31 7.4 76.48 -2.11c959.23,-41.43 1719.37,-789.46 1804.58,-1720.02l-216.08 36.13 20.84 -113.46z"/>
   <path class="fil0" d="M39726.42 19658.78c-604.04,0 -1149,-272.15 -1677.15,-707.02l-420.66 -519.24 -2134.06 -2453.61c-143.21,-129 -282.99,-253.3 -417.47,-374.59 -1298.29,-1430.65 -2874.92,-2687.33 -5154.12,-2687.33 -1782.3,0 -3131.78,769.71 -4255.9,1786.76 -379.65,323.34 -728.7,670.94 -1046.32,1022.95l-163.14 146.82 -2536.47 2920.39 0 0.18 -90.1 104.55c-534.54,455.05 -1086.3,745.26 -1701.36,745.26l-24.39 0 12.29 15.72 -12.29 0.24c0,291.48 209.04,535.56 485.88,589.94l18651.91 0c276,-54.38 485.46,-298.46 485.46,-589.94 0,0 -202.23,-1.08 -2.11,-1.08z"/>
   <path class="fil0" d="M30896.58 45050.18c-414.27,-274.92 -860.83,-548.51 -1326.95,-830.9 -572.78,-346.7 -1170.01,-704.49 -1744.9,-1089.86 -1882.09,1366.89 -3002.18,2937.14 -2908.47,4302.58 156.34,2264.74 3035.3,3294.92 3035.3,3294.92 0,0 -102.2,-53.96 -254.08,-164.65 231.37,108.82 384.1,164.65 384.1,164.65 0,0 -1504.55,-782.42 -1623.31,-2667.76 -51.43,-834.93 523.88,-1968.57 1726.59,-2930.15 263.66,-210.3 556.22,-414.94 864.86,-618.25l173.38 7391.47 8.92 0 0 1.26c0,417.71 338.21,755.08 755.25,755.08 417.53,0 754.06,-337.37 754.06,-755.08l-7.89 -104.72 163.14 -6748.59z"/>
   <path class="fil0" d="M27741.56 33275.68l203.79 107.74 -56.97 -27.22c299.97,165.07 738.94,408.97 911.24,505.03l-0.24 -8.74 0.42 0 0.24 8.92 73.71 41.01c848.3,490.33 1627.83,984.52 2256.02,1515.03l0 -3.19c1005.78,852.57 1634.45,1789.88 1534.36,2871.31 -50.59,533.88 -456.98,1350.74 -1379.89,2201.63l-44.81 1843.91 69.26 46.07c31.61,21.02 237.52,163.81 449.98,311.47 2005.73,-1345.26 3716.67,-3024.1 3174.48,-5853.73 -112.62,-591.03 -362.91,-1151.53 -723.4,-1690.7 -476.12,-680.28 -1118.58,-1334.67 -1810.54,-1929.31 -1064.63,-914.78 -2290.28,-1718.28 -3674.63,-2574.47l0 6.99c-347.55,-217.95 -705.51,-438.31 -1063.12,-659.02 -185.24,-113.22 -370.25,-225.84 -560.61,-342.07l9.51 0c-406.8,-251.31 -815.78,-503.95 -1226.02,-762.3 -5152.86,-3244.16 602.05,-5021.94 105.33,-2667.52 628.07,-153.39 2347.61,-1465.29 941.65,-3086.73 -846.44,-975.37 -3383.75,-1534.78 -5178.58,105.15 -314.66,287.2 -563.86,592.29 -764.83,907.62 -1358.21,1884.02 -670.52,4231.39 1222.23,5904.02 78.65,69.5 161.27,138.57 246.91,207.17 1307.62,1036.38 3335.69,1983.68 5239.7,2997.3l44.81 24.63zm1048.3 571.27c-143.45,-73.29 -261.97,-142.97 -383.08,-213.73 128.76,71 256.61,141.95 383.08,213.73z"/>
   <path class="fil0" d="M28477.48 20541.65l15.06 93.88 -1.69 42.28 225.42 9615.02c907.62,558.51 1733.4,1082.63 2493.17,1622.71l39.27 -1416.87 238.18 -9839.11 0 -24.03 15.05 -93.88 -3024.46 0z"/>
   <path class="fil0" d="M38415.3 23378.63c-141.04,-128.76 -287.86,-239.21 -437.04,-341.83 -1771.21,-1352.91 -4099.68,-806.68 -4902.99,120.87 -1114.49,1285.16 -264.68,2373.75 448.3,2847.29 242.64,189.34 487.38,314.66 654.56,355.85l-16.8 -122.79 43.78 14.45 -0.18 -3.37 -45.29 -22.34c-114.72,-995.13 986.22,-1148.7 1700.46,-708.71 690.94,573.2 781.88,1807.54 -1739.3,3393.69 -874.26,550.92 -1742.79,1081.42 -2584.29,1606.15l-53.96 1596.21c391.09,286.6 766.1,578.68 1122.8,885.46l26.74 23.36c1925.51,-1004.04 3938.7,-1913.1 5198.99,-3026.38 2138.52,-1890.83 2744,-4646.33 584.22,-6617.91z"/>
   <polygon class="fil1" points="44149.74,11192.57 44149.74,11293.02 44404.24,11317.47 44423.39,11140.9 "/>
   <path class="fil0" d="M22379.91 13080.68c0,492.68 -220.12,934.6 -565.14,1235.17l-210.78 191.87c-471,478.9 -763.5,1135.81 -763.5,1858.97 0,639.08 226.25,1224.99 603.13,1682.45l358.81 366.45 28.48 37.16 2406.03 -2770.14 -44.62 -212.7c0,-126.59 38.48,-241.14 106.05,-336.29 345.02,-530.26 545.8,-1163.81 545.8,-1843.25 0,-1475.28 -939.48,-2730.69 -2253.72,-3199.94l2.77 -0.91 -221.63 -72.87 -0.84 2.17 -7893.25 -2603.02 -149.77 -49.08 -44.2 125.99c-124.49,263.89 -199.28,557.9 -213.13,867.87 -43.54,1017.47 591.09,1907.2 1504.43,2229.94l0.42 10.6 113.64 27.64c161.28,46.97 329.3,77.33 503.95,87.08 1375.85,230.29 4598.14,724.48 4939.12,776.34 716.36,175.91 1247.95,820.47 1247.95,1588.5z"/>
   <path class="fil0 str0" d="M45724.93 7542.27l1.08 -0.42 -67.99 -188.68 -8040.49 2665.65 -1.09 -2.11 -221.38 72.87 2.77 0.85c-1314.42,469.31 -2253.9,1724.66 -2253.9,3199.94 0,679.44 200.78,1312.99 545.8,1843.25 67.75,95.21 105.99,209.7 105.99,336.35 0,113.64 -34.63,217.52 -90.93,305.93l9.99 11.44 2133.88 2453.67 5.3 5.9 4.7 6.2c75.64,97.08 159.53,203.31 230.72,292.32l96.47 -129.84 358.81 -366.45c376.7,-457.64 603.13,-1043.37 603.13,-1682.45 0,-723.16 -292.5,-1380.07 -763.5,-1858.97l-210.96 -191.81c-345.08,-300.63 -565.14,-742.55 -565.14,-1235.23 0,-768.21 531.77,-1412.59 1248.13,-1588.5 340.8,-51.86 3563.09,-545.99 4939.12,-776.28 174.65,-9.81 617.59,-118.58 618.01,-125.38 913.16,-322.68 1547.73,-1212.65 1504.43,-2230.12 -13,-290.82 -81.6,-566.82 -192.95,-818.13z"/>
   <path class="fil0" d="M28851.47 34228.04l-8.91 1448.07 116.83 4978.63c539.84,482.93 1212.89,962.67 1992.84,1484.2l46.07 -1889.74 14.45 0 107.92 -4456.2c-653.06,-593.8 -1481,-1106.24 -2269.2,-1564.96z"/>
   <path class="fil0" d="M27407.44 33429.31c-1322.5,1120.93 -2258.18,2292.57 -2510.33,3618.92 -544.3,2846.68 1162.96,4543.52 3177.42,5902.15l-6.14 4.28c1325.27,882.93 2785.49,1621.68 3813.08,2441.74 134.96,107.68 259.44,218.37 378.62,329.72l-17.83 0c973.45,899.97 1438.73,1897.63 1391.58,2655.89 -71.01,1136.59 -638.85,1874.69 -1087.39,2287.7 -153.81,83.89 -295.09,153.99 -410.42,207.1 -97.74,65.65 -159.17,98.59 -159.17,98.59 0,0 166.58,-60.53 418.37,-180.55 -161.28,119.18 -271.73,177.78 -271.73,177.78l103.23 -40.35c-141.47,101.35 -234.75,150.19 -234.75,150.19 0,0 987.23,-356.7 1844.09,-1105.39 650.34,-536.22 1253.06,-1296.18 1321.65,-2299.61 88.17,-1287.03 -901.66,-2754.42 -2590.01,-4063.79 -155.32,-110.03 -313.34,-221.38 -476.54,-337.13 -33.55,-23.61 -265.11,-185.49 -491.36,-343.15l-104.55 -69.44 2.35 -1.5c-168.27,-117.08 -315.51,-219.03 -349.96,-241.56 -1111.11,-732.31 -2013.8,-1374.35 -2681.37,-2031.92l7.47 0c-761.88,-744 -1203.56,-1465.89 -1215,-2223.31 -13.01,-941.83 510.69,-1798.2 1304.43,-2561.53l10.6 -1734.72c-263.66,-146.59 -788.38,-438.07 -1014.03,-560.68l-152.31 -79.43z"/>
  </g>
 </g>
</svg>
