<?xml version="1.0" encoding="UTF-8"?>
<!DOCTYPE svg PUBLIC "-//W3C//DTD SVG 1.1//EN" "http://www.w3.org/Graphics/SVG/1.1/DTD/svg11.dtd">
<!-- Creator: CorelDRAW X7 -->
<svg xmlns="http://www.w3.org/2000/svg" xml:space="preserve" width="3000px" height="514px" version="1.1" style="shape-rendering:geometricPrecision; text-rendering:geometricPrecision; image-rendering:optimizeQuality; fill-rule:evenodd; clip-rule:evenodd"
viewBox="0 0 956 164"
 xmlns:xlink="http://www.w3.org/1999/xlink">

 <g id="Слой_x0020_1">
  <metadata id="CorelCorpID_0Corel-Layer"/>
  <polygon class="fil0" points="168,144 204,144 204,138 183,138 183,27 207,27 223,85 207,144 212,144 226,94 243,144 257,144 235,67 247,21 242,21 231,58 220,21 183,21 183,6 201,6 201,0 168,0 "/>
  <path class="fil0" d="M103 139c-12,0 -19,-4 -28,-11 -44,-41 -5,-127 49,-98 26,15 38,57 16,90 -10,15 -19,20 -37,19zm-61 -60c0,50 44,79 89,60 12,-5 25,-18 30,-30 10,-24 6,-52 -13,-71 -44,-43 -106,-4 -106,41z"/>
  <path class="fil0" d="M8 45c0,35 43,75 13,105 -6,6 -12,8 -21,10l0 4c12,-1 20,-7 28,-14 42,-40 -10,-73 -10,-108 0,-13 6,-17 20,-17l0 -4c-17,0 -30,7 -30,24z"/>
  <path class="fil1" d="M303 82l10 3c-3,10 -10,16 -21,16 -15,0 -23,-12 -23,-26 0,-14 8,-26 24,-26 10,0 17,5 20,15l-10 2c-1,-5 -5,-8 -11,-8 -10,0 -12,8 -12,17 0,8 2,17 12,17 7,0 10,-5 11,-10zm15 -7c0,-15 8,-26 24,-26 16,0 24,11 24,26 0,15 -8,26 -24,26 -16,0 -24,-10 -24,-26zm10 0c0,9 4,17 14,17 10,0 14,-8 14,-17 0,-9 -4,-17 -14,-17 -10,0 -14,8 -14,17zm46 -25l10 0 0 21 8 0c2,-13 10,-22 23,-22 16,0 23,11 23,26 0,14 -7,26 -22,26 -14,0 -22,-8 -24,-22l-8 0 0 21 -10 0 0 -50zm29 25c0,8 2,17 12,17 11,0 12,-9 12,-18 0,-8 -2,-16 -12,-16 -10,0 -12,9 -12,17zm50 -11l-9 -3c2,-8 8,-12 18,-12 8,0 17,3 17,13 0,6 -3,9 -8,12 6,2 10,6 10,12 0,5 -1,8 -5,11 -6,5 -20,5 -26,1 -4,-1 -6,-5 -7,-10l9 -3c2,6 4,8 10,8 4,0 9,-2 9,-7 0,-7 -8,-7 -12,-7l0 -8c2,0 5,0 8,-2 3,-2 3,-7 0,-10 -4,-4 -12,-2 -14,5zm52 7l16 0c-1,-7 -5,-13 -12,-13 -6,0 -9,3 -11,8l-10 -2c2,-10 11,-15 21,-15 15,0 23,12 23,26 0,14 -8,26 -23,26 -11,0 -18,-5 -21,-16l10 -3c1,6 5,10 11,10 8,0 11,-6 12,-13l-16 0 0 -8zm35 -21l10 0 0 21c10,-1 7,-14 15,-19 3,-2 8,-2 11,-2l0 7c-2,0 -4,0 -6,1 -2,1 -4,6 -5,9 -1,3 -2,5 -5,7 5,2 8,8 10,12l7 14 -12 0c-3,-6 -5,-11 -8,-16 -2,-4 -3,-6 -7,-6l0 22 -10 0 0 -50zm74 32l9 3c-2,10 -9,16 -20,16 -15,0 -23,-12 -23,-26 0,-14 7,-26 23,-26 10,0 17,5 20,15l-10 2c-1,-5 -5,-8 -10,-8 -10,0 -13,8 -13,17 0,8 2,17 12,17 7,0 10,-5 12,-10zm18 -32l40 0 0 50 -10 0 0 -42 -20 0 0 42 -10 0 0 -50zm50 50l0 -50 37 0 0 8 -27 0 0 12 25 0 0 8 -25 0 0 14 28 0 0 8 -38 0zm47 0l0 -50c7,0 22,-1 28,1 7,2 10,8 10,14 0,5 -1,10 -6,13 -5,4 -15,3 -22,3l0 19 -10 0zm10 -42l0 15c4,0 11,0 14,-1 2,-1 4,-4 4,-6 0,-4 -2,-7 -6,-7 -3,-1 -8,-1 -12,-1zm47 42l0 -42 -15 0 0 -8 40 0 0 8 -15 0 0 42 -10 0zm32 -50l9 0 0 33 20 -33 10 0 0 50 -9 0 0 -33 -20 33 -10 0 0 -50zm57 14l-10 -3c2,-8 8,-12 18,-12 8,0 18,3 18,13 0,6 -4,9 -8,12 10,3 13,16 5,23 -4,3 -8,4 -15,4 -10,0 -16,-3 -19,-13l9 -3c2,6 4,8 10,8 4,0 9,-2 9,-7 0,-7 -7,-7 -12,-7l0 -8c5,0 11,-1 11,-7 0,-5 -4,-7 -8,-7 -4,0 -7,2 -8,7zm81 36l-10 0 -5 -11 -20 0 -4 11 -11 0 20 -50 10 0 20 50zm-18 -20l-7 -18 -7 18 14 0z"/>
 </g>
</svg>
