<svg height="512pt" viewBox="0 0 512 512" width="512pt" xmlns="http://www.w3.org/2000/svg"><path d="m0 271.023438h61.230469v210.753906h-29.964844v29.964844h449.46875v-29.964844h-29.964844v-210.753906h61.230469l-256-271.023438zm420.804688-29.960938v240.714844h-329.609376v-240.714844h-21.671874l186.476562-197.425781 186.476562 197.425781zm0 0"/><path d="m121.160156 314.773438c0 74.351562 60.488282 134.839843 134.839844 134.839843s134.839844-60.488281 134.839844-134.839843c0-74.351563-60.488282-134.839844-134.839844-134.839844s-134.839844 60.488281-134.839844 134.839844zm134.839844 46.144531c-8.261719 0-14.980469-6.71875-14.980469-14.980469h-29.964843c0 19.53125 12.523437 36.183594 29.964843 42.371094v30.265625c-50.757812-7.292969-89.894531-51.058594-89.894531-103.800781 0-52.742188 39.136719-96.507813 89.894531-103.800782v32.664063c-17.441406 6.1875-29.964843 22.839843-29.964843 42.371093 0 24.785157 20.160156 44.945313 44.945312 44.945313 8.261719 0 14.980469 6.722656 14.980469 14.984375s-6.71875 14.980469-14.980469 14.980469zm14.980469-74.910157h29.964843c0-19.53125-12.523437-36.183593-29.964843-42.371093v-32.664063c50.757812 7.292969 89.894531 51.058594 89.894531 103.800782 0 52.742187-39.136719 96.507812-89.894531 103.800781v-30.265625c17.441406-6.1875 29.964843-22.839844 29.964843-42.371094 0-24.785156-20.160156-44.949219-44.945312-44.949219-8.261719 0-14.980469-6.71875-14.980469-14.980469 0-8.261718 6.71875-14.984374 14.980469-14.984374s14.980469 6.722656 14.980469 14.984374zm0 0"/></svg>