<?xml version="1.0" encoding="UTF-8"?>
<!DOCTYPE svg PUBLIC "-//W3C//DTD SVG 1.1//EN" "http://www.w3.org/Graphics/SVG/1.1/DTD/svg11.dtd">
<!-- Creator: CorelDRAW 2019 (64-Bit) -->
<svg xmlns="http://www.w3.org/2000/svg" xml:space="preserve" width="2480px" height="3508px" version="1.1" style="shape-rendering:geometricPrecision; text-rendering:geometricPrecision; image-rendering:optimizeQuality; fill-rule:evenodd; clip-rule:evenodd"
viewBox="0 0 2480 3507.43" xmlns:xlink="http://www.w3.org/1999/xlink">
 <g id="Слой_x0020_1">
  <metadata id="CorelCorpID_0Corel-Layer"/>
  <g id="_3249584148016">
   <path class="fil0" d="M414.7 598.89l142.46 -0.23 5.09 -5.7c22.04,-32.9 58.43,-66.06 76.27,-100.33l-0.71 -0.08 -383.82 0 0.95 5.73c17.02,55.38 67.28,96.65 128.4,99.3l31.36 1.31z"/>
   <path class="fil0 str0" d="M319.72 458.01l329.29 0c-0.38,-10.22 -3.33,-26.42 -9.98,-37.01 -30.37,-49.77 -134.54,-42.57 -201.13,-55.92 -81.14,-13.56 -243.27,-40.59 -243.27,-40.59l-14.51 -2.78 0 8.51c6.33,69.05 62.73,124.58 133.91,127.63l5.69 0.16z"/>
   <path class="fil0 str0" d="M560.18 791.69l-7.13 -19.5c-14.64,-40.58 -15.75,-103.54 -6.37,-144.07l-194.23 -1.93 1.26 5.61c15.76,76.14 76.08,136.3 153.5,151.74 7.17,1.42 40.45,8.48 52.97,8.15z"/>
   <path class="fil0 str0" d="M2130.87 626.17l-178.62 1.94c10.18,44.04 8,114.56 -10.49,154.08l-3.89 8.28 31.94 -3.82c87.79,-7.55 158.18,-71.66 175.39,-154.85l1.42 -5.63 -15.75 0z"/>
   <path class="fil0 str0" d="M2229.52 492.55l-368.4 0 -0.71 0.07c17.85,34.28 54.21,67.45 76.25,100.35l3.56 5.91 169.6 0c10,0 20.51,-2.67 23.95,-3.27 52.76,-9.17 94.92,-47.56 110.21,-97.32l0.75 -5.74 -15.21 0z"/>
   <path class="fil0" d="M2304.3 324.49c-81.02,13.57 -162.14,27.04 -243.28,40.58 -66.59,13.37 -170.76,6.14 -201.14,55.92 -6.65,10.61 -9.58,21 -9.98,31.21l0 5.22 25.35 0.05 303.96 0.54 5.67 -0.15c71.18,-3.08 127.59,-58.58 133.91,-127.63l-16.03 2.68 1.54 -8.42z"/>
   <path class="fil0" d="M1971.62 953.45c-44.82,0 -85.26,-20.2 -124.45,-52.46l-31.21 -38.53 -158.35 -182.07c-10.63,-9.57 -21,-18.79 -30.98,-27.79 -96.34,-106.16 -213.33,-199.41 -382.45,-199.41 -132.25,0 -232.38,57.12 -315.79,132.58 -28.17,24 -54.08,49.79 -77.64,75.91l-12.11 10.89 -188.21 216.7 0 0.02 -6.69 7.75c-39.66,33.77 -80.6,55.3 -126.24,55.3l-1.81 0 0.91 1.17 -0.91 0.02c0,21.63 15.51,39.74 36.05,43.77l1384.02 0c20.48,-4.03 36.02,-22.14 36.02,-43.77 0,0 -15.01,-0.08 -0.16,-0.08z"/>
   <path class="fil0" d="M1316.43 2837.55c-30.74,-20.4 -63.88,-40.7 -98.47,-61.66 -42.5,-25.72 -86.81,-52.27 -129.47,-80.87 -139.66,101.43 -222.77,217.95 -215.82,319.26 11.6,168.05 225.23,244.49 225.23,244.49 0,0 -7.58,-4 -18.85,-12.21 17.17,8.07 28.5,12.21 28.5,12.21 0,0 -111.64,-58.05 -120.45,-197.95 -3.82,-61.95 38.87,-146.07 128.11,-217.42 19.57,-15.61 41.27,-30.79 64.18,-45.88l12.86 548.47 0.66 0 0 0.09c0,30.99 25.1,56.03 56.05,56.03 30.98,0 55.95,-25.04 55.95,-56.03l-0.59 -7.77 12.11 -500.76z"/>
   <path class="fil0" d="M1082.32 1963.85l15.12 8 -4.23 -2.02c22.26,12.25 54.83,30.34 67.62,37.47l-0.02 -0.65 0.03 0 0.02 0.67 5.47 3.04c62.94,36.38 120.79,73.05 167.4,112.42l0 -0.24c74.63,63.26 121.28,132.81 113.85,213.06 -3.75,39.61 -33.91,100.23 -102.39,163.36l-3.32 136.83 5.14 3.42c2.34,1.56 17.62,12.15 33.39,23.11 148.83,-99.82 275.78,-224.4 235.55,-434.36 -8.36,-43.86 -26.93,-85.45 -53.68,-125.46 -35.33,-50.47 -83,-99.03 -134.34,-143.16 -79,-67.87 -169.95,-127.5 -272.67,-191.03l0 0.52c-25.79,-16.17 -52.35,-32.52 -78.89,-48.9 -13.74,-8.4 -27.47,-16.76 -41.59,-25.38l0.7 0c-30.18,-18.65 -60.53,-37.4 -90.97,-56.57 -382.36,-240.72 44.67,-372.64 7.81,-197.93 46.61,-11.38 174.2,-108.73 69.88,-229.04 -62.81,-72.38 -251.09,-113.89 -384.27,7.8 -23.34,21.31 -41.84,43.95 -56.75,67.35 -100.78,139.79 -49.75,313.97 90.69,438.09 5.84,5.15 11.97,10.28 18.33,15.37 97.02,76.9 247.51,147.19 388.79,222.41l3.33 1.82zm77.78 42.39c-10.64,-5.44 -19.43,-10.61 -28.42,-15.86 9.55,5.27 19.04,10.54 28.42,15.86z"/>
   <path class="fil0" d="M1136.93 1018.96l1.11 6.97 -0.12 3.13 16.72 713.46c67.35,41.44 128.63,80.33 185,120.41l2.92 -105.14 17.67 -730.08 0 -1.78 1.12 -6.97 -224.42 0z"/>
   <path class="fil0" d="M1874.33 1229.47c-10.46,-9.55 -21.36,-17.75 -32.43,-25.36 -131.42,-100.39 -304.2,-59.86 -363.81,8.96 -82.7,95.37 -19.64,176.14 33.27,211.28 18,14.05 36.16,23.35 48.57,26.41l-1.25 -9.12 3.25 1.08 -0.02 -0.25 -3.36 -1.66c-8.51,-73.84 73.18,-85.24 126.18,-52.59 51.27,42.53 58.02,134.12 -129.06,251.82 -64.87,40.88 -129.32,80.24 -191.76,119.18l-4 118.44c29.02,21.27 56.84,42.94 83.31,65.7l1.99 1.74c142.87,-74.5 292.26,-141.96 385.77,-224.57 158.69,-140.3 203.61,-344.76 43.35,-491.06z"/>
   <polygon class="fil1" points="2299.84,325.24 2299.84,332.69 2318.73,334.5 2320.15,321.4 "/>
   <path class="fil0" d="M684.47 465.34c0,36.56 -16.33,69.35 -41.93,91.65l-15.64 14.24c-34.95,35.53 -56.66,84.28 -56.66,137.94 0,47.42 16.79,90.9 44.76,124.84l26.62 27.19 2.11 2.76 178.54 -205.55 -3.31 -15.78c0,-9.4 2.85,-17.9 7.87,-24.96 25.6,-39.34 40.5,-86.36 40.5,-136.77 0,-109.47 -69.72,-202.63 -167.24,-237.44l0.21 -0.07 -16.45 -5.41 -0.06 0.16 -585.7 -193.15 -11.11 -3.64 -3.28 9.35c-9.24,19.58 -14.79,41.4 -15.81,64.4 -3.23,75.5 43.86,141.52 111.63,165.46l0.03 0.79 8.43 2.05c11.97,3.49 24.44,5.74 37.4,6.46 102.09,17.09 341.19,53.76 366.49,57.61 53.16,13.05 92.6,60.88 92.6,117.87z"/>
   <path class="fil0 str0" d="M2416.72 54.38l0.08 -0.03 -5.04 -14.01 -596.62 197.8 -0.08 -0.15 -16.43 5.4 0.2 0.07c-97.53,34.82 -167.24,127.97 -167.24,237.44 0,50.41 14.9,97.43 40.5,136.77 5.03,7.07 7.87,15.56 7.87,24.96 0,8.43 -2.57,16.14 -6.75,22.7l0.74 0.85 158.34 182.07 0.39 0.44 0.35 0.45c5.61,7.21 11.84,15.09 17.12,21.7l7.16 -9.64 26.62 -27.19c27.95,-33.96 44.76,-77.42 44.76,-124.84 0,-53.66 -21.71,-102.41 -56.66,-137.94l-15.65 -14.23c-25.61,-22.31 -41.94,-55.1 -41.94,-91.66 0,-57 39.46,-104.82 92.62,-117.87 25.29,-3.85 264.39,-40.51 366.49,-57.6 12.96,-0.73 45.83,-8.8 45.86,-9.31 67.76,-23.94 114.84,-89.98 111.63,-165.48 -0.96,-21.58 -6.05,-42.06 -14.32,-60.7z"/>
   <path class="fil0" d="M1164.68 2034.52l-0.66 107.45 8.66 369.43c40.06,35.83 90,71.43 147.88,110.13l3.42 -140.23 1.07 0 8.01 -330.66c-48.46,-44.06 -109.9,-82.08 -168.38,-116.12z"/>
   <path class="fil0" d="M1057.53 1975.25c-98.14,83.18 -167.57,170.12 -186.28,268.53 -40.39,211.24 86.3,337.14 235.77,437.96l-0.45 0.32c98.34,65.51 206.69,120.33 282.94,181.18 10.01,7.99 19.25,16.2 28.09,24.46l-1.32 0c72.23,66.78 106.76,140.81 103.26,197.08 -5.27,84.34 -47.41,139.1 -80.69,169.75 -11.41,6.22 -21.89,11.43 -30.45,15.37 -7.25,4.87 -11.81,7.31 -11.81,7.31 0,0 12.36,-4.49 31.04,-13.39 -11.97,8.84 -20.16,13.19 -20.16,13.19l7.66 -3c-10.5,7.52 -17.42,11.15 -17.42,11.15 0,0 73.25,-26.47 136.83,-82.03 48.26,-39.78 92.98,-96.17 98.07,-170.63 6.55,-95.5 -66.9,-204.38 -192.18,-301.54 -11.53,-8.17 -23.25,-16.43 -35.36,-25.02 -2.49,-1.75 -19.67,-13.76 -36.46,-25.46l-7.76 -5.15 0.18 -0.12c-12.49,-8.68 -23.42,-16.25 -25.97,-17.92 -82.45,-54.34 -149.43,-101.98 -198.97,-150.77l0.56 0c-56.53,-55.21 -89.31,-108.78 -90.16,-164.98 -0.96,-69.88 37.9,-133.43 96.79,-190.07l0.79 -128.72c-19.56,-10.88 -58.5,-32.51 -75.24,-41.6l-11.3 -5.9z"/>
  </g>
 </g>
</svg>
