<?xml version="1.0" encoding="UTF-8"?>
<!DOCTYPE svg PUBLIC "-//W3C//DTD SVG 1.1//EN" "http://www.w3.org/Graphics/SVG/1.1/DTD/svg11.dtd">
<!-- Creator: CorelDRAW X7 -->
<svg xmlns="http://www.w3.org/2000/svg" xml:space="preserve" width="3836px" height="701px" version="1.1" style="shape-rendering:geometricPrecision; text-rendering:geometricPrecision; image-rendering:optimizeQuality; fill-rule:evenodd; clip-rule:evenodd"
viewBox="0 0 4029 736"
 xmlns:xlink="http://www.w3.org/1999/xlink">
 <defs>
  <style type="text/css">
   <![CDATA[
    .fil1 {fill:#004B93}
    .fil3 {fill:#004B93}
    .fil2 {fill:#070A15}
    .fil5 {fill:#9A9A9D}
    .fil7 {fill:#ABB6F2}
    .fil6 {fill:#CBCBCB}
    .fil0 {fill:#CCCCCC}
    .fil4 {fill:#FDFDFD}
    .fil8 {fill:#004B93;fill-rule:nonzero}
   ]]>
  </style>
 </defs>
 <g id="Слой_x0020_1">
  <metadata id="CorelCorpID_0Corel-Layer"/>
  <path class="fil0" d="M46 47c-27,-3 -37,-16 -46,-29 0,223 0,438 0,662 7,18 30,28 49,33 -1,-222 -2,-444 -3,-666z"/>
  <path class="fil1" d="M383 653c-4,0 -11,1 -14,-1 1,-4 3,1 6,-8l13 -30c1,-2 3,-1 4,0 0,0 0,0 0,1 3,5 12,31 14,33 3,4 3,0 4,4 -4,2 -14,1 -19,1 0,-5 0,-1 4,-4 0,-3 -1,-6 -2,-8l-13 0c-5,15 2,5 3,12zm-54 -38c2,-1 -1,-1 3,-1 6,0 21,0 25,1 4,2 7,5 5,10 -1,4 -5,6 -9,7 4,1 8,2 11,5 3,5 0,11 -3,13 -5,3 -24,4 -32,3 1,-6 5,0 6,-7 0,-1 1,-27 -1,-29 -1,0 -1,0 -2,-1 -4,-1 -1,0 -3,-1zm-82 0c2,-2 11,-1 15,-1 7,0 4,0 5,1 -1,3 -4,0 -5,4 -1,3 -1,26 1,30 3,1 4,0 4,4 -5,0 -17,1 -20,-1 1,-3 1,-1 4,-3 1,-3 2,-26 1,-29 0,-2 0,-3 -2,-3 -3,-2 0,1 -3,-2zm-27 -1l18 0c4,0 1,0 3,1 -2,2 -4,1 -5,3 -1,1 -1,27 -1,29 1,2 1,2 3,3 3,1 2,-1 2,2 -1,1 -18,1 -20,0 1,-3 2,-1 5,-3 1,-4 1,-14 1,-19 0,-3 0,-8 -1,-10 0,-2 0,-3 -1,-3 -5,-2 -3,1 -4,-3zm98 34c1,2 0,1 3,2 3,1 1,0 2,2 -2,1 -16,1 -20,1 0,-4 -1,-2 2,-3 2,-1 1,1 3,-1 1,-4 0,-19 0,-24 0,1 0,1 -1,2 -3,4 -9,27 -13,26 -3,-3 -9,-24 -13,-29 0,3 0,22 1,24 3,4 4,-2 5,5l-14 0c0,-5 3,-1 5,-5 1,-3 0,-26 0,-30 -2,-2 -4,-1 -5,-3 2,-2 1,-1 6,-1 3,0 5,0 7,0l12 26c2,-2 2,-3 3,-6l8 -20c2,0 5,0 7,0l5 0c2,0 1,0 2,1 -2,2 1,0 -3,1 -4,2 -3,6 -3,13 0,5 -1,16 1,19zm75 -79c-7,27 -50,17 -43,-10 8,-27 50,-15 43,10zm7 -23c2,-2 44,-2 46,0 -1,4 -5,-1 -5,6 -1,4 -2,26 1,29 3,2 3,-1 4,2 -1,1 -18,2 -20,0 1,-3 4,-2 5,-3 0,0 3,-31 -2,-32 0,-1 -1,-1 -2,-1l-8 0c-7,0 -5,3 -5,21 0,7 -1,12 3,13 3,1 1,-1 3,2 -3,2 -19,1 -20,0 1,-4 5,1 5,-6 0,-4 1,-27 -1,-29 -1,-1 -2,0 -3,-1 -3,-1 0,1 -1,-1zm-107 0l1 -1c1,0 2,0 3,0 1,0 2,0 3,0 3,0 5,0 7,0l11 26 11 -26 13 0c1,0 0,0 1,1 -1,3 -4,-1 -5,4 -1,2 -1,8 -1,10 0,6 0,15 1,20 1,1 2,1 3,1 3,1 1,0 2,2 -2,2 -18,1 -20,0 2,-5 6,3 6,-11 0,-5 0,-11 -1,-17 0,0 -10,28 -12,29l-1 0c-4,-4 -9,-23 -13,-29 -1,5 0,11 0,17 0,9 1,8 3,9 3,2 1,-1 2,3l-12 0c-1,0 -1,-1 -2,-1 2,-3 0,0 3,-2 1,-1 1,-1 2,-3 1,-3 1,-26 0,-29 -1,-2 0,0 -2,-1 -5,-2 -1,0 -3,-2zm-52 0c2,-2 10,-1 15,-1 4,0 3,0 5,1 -1,2 0,1 -2,2 -2,0 -4,-2 -4,7 0,5 0,10 0,15 3,-2 12,-11 15,-14 2,-2 4,-7 0,-8 -4,-2 -2,0 -3,-2 1,-1 0,-1 2,-1 0,0 17,0 18,1 -1,3 -1,0 -3,2 -4,2 -2,10 -2,16 0,4 -1,9 0,13 0,6 4,2 5,6 -1,1 -15,1 -18,1 -3,0 -1,0 -2,-1 3,-7 7,8 5,-25 -2,1 -14,13 -17,16 0,2 0,5 1,6 1,1 1,1 3,1 2,1 1,0 2,2 -2,1 -1,1 -5,1 -2,0 -4,0 -5,0 -5,0 -8,1 -10,-1 1,-4 5,1 5,-6 0,-4 1,-27 -1,-29 -1,-1 -2,0 -3,-1 -3,-1 0,1 -1,-1zm-57 0c2,-2 12,-1 14,-1l11 26c3,-2 10,-23 11,-26l14 1c-2,3 -5,-1 -5,6 -1,4 -1,27 1,29 2,1 3,-1 4,2 0,1 0,1 -1,1 -1,0 -3,0 -3,0l-10 0c-5,0 -4,0 -5,-1 1,-2 0,-1 4,-3 1,-4 1,-19 0,-24 -3,6 -8,24 -12,28 -3,-1 -1,1 -4,-6 -3,-7 -8,-19 -10,-22 0,0 0,0 0,-1 0,6 0,11 0,17 0,5 -1,7 3,9 3,1 1,-1 2,2 -2,2 -1,1 -6,1 -3,0 -6,0 -7,-1 1,-5 5,4 5,-14 0,-7 0,-14 -1,-21 0,0 -1,0 -2,-1 -5,-1 -1,0 -3,-1zm145 -428c1,0 1,0 2,1 0,0 1,1 1,2 0,0 1,1 1,3 2,8 -1,15 -8,20l0 20c8,3 21,3 25,-4 -1,-9 -13,-5 -13,-21 0,-12 5,-20 11,-25 29,-21 74,21 95,36 12,10 25,18 41,22 4,1 5,0 5,4 7,1 0,7 -2,9 -4,2 -8,3 -13,4 -3,5 -7,7 -15,7 -8,1 -14,-1 -21,-1 -5,9 -13,7 -20,7 -2,-1 -3,1 -6,2 -12,4 -24,0 -30,-7 -1,-2 -1,-1 -3,-2 0,-1 -2,-3 -3,-4 -1,-2 -3,-6 -4,-8 0,16 -21,22 -35,20 -6,-1 -9,-4 -13,-5l-1 55c11,0 26,-14 27,-23 -8,1 -16,1 -19,-5 -10,-6 -6,-18 7,-20 6,-1 11,1 16,3 7,3 7,5 10,9 0,0 0,0 0,0 8,8 3,23 -1,32 -5,9 -12,16 -22,20l9 12c0,0 0,0 0,0l3 3c0,1 1,2 2,4 9,21 0,42 -20,54 1,2 4,4 7,9 1,1 1,1 1,2l1 1c0,0 0,0 1,0 5,4 8,20 3,32 -7,13 -13,15 -20,21l6 7c0,0 0,0 1,1 6,6 7,15 4,25 -2,5 -4,8 -7,11 -1,1 -6,7 -9,7 1,1 2,2 3,4l4 5c13,12 -2,40 -15,40 0,7 1,21 -4,25l-2 -3 -3 -1c-3,-7 -3,-12 -3,-21 -1,-1 -2,-1 -3,-1 -3,-2 -2,-1 -2,-3 -6,-6 -11,-7 -14,-23 -3,-12 6,-24 10,-25 -5,-7 -11,-10 -14,-22 -4,-16 5,-23 7,-28 -3,-5 -15,-13 -16,-33 -1,-14 4,-30 13,-36 -1,-2 -1,-1 -3,-3 -2,-1 -2,-1 -4,-3 -17,-13 -16,-44 4,-61l1 -1c-1,-1 -3,-2 -5,-4 -13,-8 -25,-20 -20,-38 6,-17 29,-30 41,-14 0,1 0,1 0,1 0,0 1,0 1,0 0,0 1,1 1,1l0 -13c-14,3 -25,3 -33,-6 -2,-3 -3,-2 -5,-5 -1,-1 -2,-3 -3,-5 -6,4 -16,19 -30,17 -3,0 -5,-1 -6,-2 -1,0 -2,0 -3,-1 0,0 -1,-1 -1,-1 -1,-1 0,0 -1,-1 -5,0 -7,2 -14,1 -5,0 -6,-2 -9,-5l-3 -2c-9,0 -22,0 -26,-6 -1,-1 -1,-2 -3,-3 -10,-1 -18,-5 -24,-9l0 0c-2,-3 -3,-1 -2,-5 7,-2 9,0 21,-6 34,-15 70,-61 111,-52 6,1 12,4 15,9l2 2c4,4 11,22 -1,33 -9,8 -4,4 -8,8 4,3 16,4 23,3l0 -25c0,0 -16,-16 1,-29 9,-7 21,-5 28,6 0,1 0,1 0,1zm-280 593c0,2 3,1 5,1 1,-13 0,-65 0,-82l1 -582 2 0 0 581c0,15 -1,74 0,83l522 1 0 -664 -395 -1 -135 0 0 663z"/>
  <path class="fil2" d="M316 495c-1,1 0,0 -1,1 -1,2 -1,2 -2,2l1 -30 2 2c3,3 6,6 6,12 0,5 -3,11 -6,13zm-13 -25l0 29c0,-1 -1,0 -2,-4 -15,-22 0,-27 2,-30l0 5zm5 57c-5,-5 -3,-55 -3,-65 3,1 5,3 7,5 0,7 -1,56 -4,60zm-6 -25c-3,0 -8,-5 -10,-7 -9,-13 -10,-29 3,-39 2,1 6,3 8,5 -1,5 -18,11 -7,32 2,3 5,6 6,9zm2 -85c12,4 9,4 9,19 0,6 1,9 -4,11l-5 -3 0 -27zm11 25l0 -19c5,6 3,13 0,19zm-13 -1c-5,-6 -5,-17 0,-23 1,5 0,7 -1,11 -1,6 1,7 1,12zm12 61c2,-5 5,-6 8,-12 2,-5 3,-10 1,-15 -9,-16 -31,-16 -40,-39 -5,-12 -1,-23 6,-29 4,2 8,6 13,8 -5,8 -10,16 -2,27 11,13 35,20 30,40 -1,8 -9,19 -16,20zm-13 -139l1 18c0,6 -1,4 -1,5 -3,-2 -1,0 -2,-2 -7,-10 -6,-19 3,-27l-1 6zm18 19c-1,3 0,1 -2,3l0 -27 3 2c2,2 5,6 4,12 0,5 -3,8 -5,10zm-5 5c-1,2 -3,3 -6,5l-4 -3 0 -35 4 -3c3,1 5,3 7,5l-1 31zm5 67c-3,-1 -6,-3 -8,-5 5,-4 12,-14 8,-24 -3,-7 -13,-10 -20,-14 -43,-25 -22,-72 -14,-73 4,1 19,10 21,12 -6,6 -18,15 -12,29 5,10 15,16 23,22 7,5 19,13 19,26 0,11 -8,23 -17,27zm2 -134l-3 2 1 -36c2,0 4,1 5,3 2,0 1,0 2,1 0,0 1,1 1,1 1,2 2,3 3,4 1,4 2,7 2,11 -1,6 -6,13 -11,14zm-9 6c-2,-1 -7,-4 -9,-6l0 -43c5,2 10,5 14,7l-1 34c0,6 1,6 -4,8zm-12 -40c0,0 0,0 1,0l0 31c-4,0 -6,-3 -7,-6 -5,-5 -6,-11 -3,-18 1,-5 7,-12 10,-14l0 6 -1 1zm22 116c-3,-3 -9,-5 -12,-9l7 -6c10,-8 13,-17 5,-28 -3,-3 -10,-8 -15,-11 -14,-10 -39,-18 -40,-42 -1,-16 8,-31 17,-37 1,0 14,5 16,8 -3,2 -9,10 -11,15 -6,17 7,26 19,34 16,10 40,23 38,45 -1,13 -14,30 -24,31zm-2 -146c7,-2 8,-1 14,-4 7,-4 13,-11 17,-18 2,-4 3,-9 3,-15 -2,2 -7,9 -18,6 -16,-3 -10,-24 14,-17 35,12 -3,58 -15,57 -1,0 -5,-3 -7,-4 -4,-1 -8,-1 -8,-5zm-51 -34c-2,18 10,28 25,31 17,4 27,6 41,15 19,12 25,39 11,58 -2,2 -2,1 -4,3 -3,4 -7,7 -12,9 -2,-1 -5,-3 -8,-5 -3,-3 -5,-3 -7,-6 25,-12 24,-32 6,-43 -18,-11 -63,-22 -63,-50 0,-11 7,-20 14,-24 11,-7 26,-2 24,7 -1,4 -5,7 -10,8 -9,1 -12,-3 -17,-3zm101 -51l10 -1c8,9 16,19 26,25 2,1 4,1 6,2 -2,2 -4,3 -7,3 -20,4 -32,-12 -35,-29zm-153 21c2,-1 6,-4 8,-5 10,-8 14,-11 23,-19l11 3c-2,12 -25,34 -40,24 -2,-2 -1,-1 -2,-3zm165 -22c5,-2 9,-4 11,-7 3,1 2,2 4,4 13,11 18,15 34,22l3 2c-6,12 -22,5 -30,0 -4,-3 -8,-7 -12,-10 -2,-2 -3,-4 -5,-6 -2,-2 -3,-3 -5,-5zm-190 17c9,-3 16,-8 22,-13l15 -11c2,-3 2,-3 4,-5l4 3c3,4 6,4 8,6 -2,3 -8,8 -11,10 -7,6 -18,15 -27,16 -7,1 -13,-1 -15,-6zm202 -26c4,-5 6,-11 7,-18 8,2 37,35 63,42 4,1 3,0 5,2 -5,5 -14,5 -23,4 -10,-1 -12,-2 -20,-6 -13,-7 -16,-10 -25,-17 -1,-2 -2,-3 -3,-4 -2,-2 -2,-1 -4,-3zm-229 19c8,-5 14,-4 34,-15 8,-5 14,-9 21,-15 2,-1 5,-3 7,-4 2,4 1,6 5,10 -3,5 -22,19 -29,24 -10,6 -18,9 -31,5 -4,-1 -6,-3 -7,-5zm137 -39c9,3 8,4 19,1l-3 115 -15 -4 -1 -112zm-163 29c43,-9 66,-45 98,-55 18,-6 47,-9 50,17 1,17 -11,19 -13,25 -4,11 18,11 26,10l0 28c-11,4 -20,6 -30,-1 -15,-9 -10,-20 -9,-25 -9,-1 -17,-4 -22,-9 -11,-9 -10,-11 -8,-20 -8,4 -43,35 -66,37 -11,1 -18,-4 -26,-7zm183 -4c7,1 11,3 18,2 5,-1 12,-3 12,-8 1,-9 -15,-6 -13,-26 4,-25 28,-28 50,-18 19,9 27,17 42,28 10,7 17,13 29,20 17,10 19,7 27,11 -1,9 -17,10 -25,7 -17,-6 -38,-24 -53,-36 -7,-6 -8,-4 -10,-8 -2,26 -11,29 -32,32 1,7 1,11 -2,17 -3,5 -7,7 -12,9 -16,6 -23,0 -31,-3l0 -27zm-14 -56c10,-3 19,4 21,12 2,10 -5,18 -13,20 -21,5 -31,-27 -8,-32zm-31 52l-1 -3c0,-4 3,-5 5,-8 3,-2 5,-3 6,-7 4,-8 1,-16 -1,-23l-2 -2c-3,-5 -9,-8 -15,-9 -41,-9 -77,37 -111,52 -12,6 -14,4 -21,6 -1,4 0,2 2,5 9,3 12,6 24,6l0 3c2,1 2,2 3,3 10,4 14,3 24,3l2 3 3 2c9,3 9,3 19,1 2,1 3,1 4,3 15,5 18,2 32,-9l7 -8 2 5c1,2 2,4 3,5 2,3 3,2 5,5 13,8 18,6 33,2l0 4 0 13 0 9c1,3 1,25 1,29 -10,0 -22,-6 -25,-12 -4,-4 -5,-9 -5,-16 6,2 10,5 18,2 6,-2 10,-6 9,-14 -12,-16 -35,-3 -41,14 -5,18 7,30 20,38 2,2 4,3 5,4l-1 1c-20,17 -21,48 -4,61 2,2 2,2 4,3 2,2 2,1 3,3 -9,6 -14,22 -13,36 1,20 13,28 16,33 -2,5 -11,12 -7,28 3,12 9,15 14,22 -4,1 -13,13 -10,25 3,16 8,17 14,23l5 2 0 2c0,9 0,14 3,21l3 1c0,-1 1,0 2,-5 1,-2 1,-4 1,-6 0,-5 0,-10 0,-14 6,0 7,-2 10,-5 1,-1 2,-2 4,-4 7,-11 9,-15 4,-28l-4 -5c-1,-2 -2,-3 -3,-4l-3 -2c6,-4 11,-9 15,-16 5,-9 4,-16 0,-25 -1,-1 -1,-1 -1,-1l-6 -7c-2,-1 -2,-1 -3,-3 8,-5 14,-10 19,-19 6,-12 5,-18 1,-31 -1,0 -1,0 -1,0l-1 -1c0,-1 0,-1 -1,-2 -3,-5 -6,-7 -7,-9 -2,-1 -1,-1 -3,-2 1,-1 1,-1 2,-1l5 -4c5,-5 11,-9 14,-18 5,-15 2,-24 -3,-36 0,0 0,0 0,0l-9 -12 -3 -2c1,-1 4,-2 6,-3 2,-1 4,-3 5,-5 11,-9 20,-27 15,-42 0,0 0,0 0,0 -3,-4 -3,-6 -10,-9 -5,-2 -10,-4 -16,-3 -13,2 -17,14 -7,20 9,5 12,3 20,0l-1 5c-1,9 -16,23 -27,23l-3 1 2 -59c11,4 14,8 30,4 14,-4 15,-12 18,-19 0,0 0,0 0,0l2 3c1,2 3,6 4,8 1,1 3,3 3,4 2,1 2,0 3,2 11,8 27,8 32,1 9,2 18,1 21,-6 8,1 13,2 21,2 6,-1 14,-2 15,-8 8,-1 16,-3 18,-10 0,-4 -1,-3 -5,-4 -16,-4 -29,-12 -41,-22 -21,-15 -66,-57 -95,-36 -6,5 -11,13 -11,25 0,16 12,12 13,21 -4,7 -17,7 -25,4l-2 0c-1,-5 0,-10 0,-15 0,-5 -1,-7 2,-11 6,-5 7,-11 4,-20 0,0 0,0 0,-1 -7,-11 -19,-13 -28,-6 -17,13 -1,29 -1,29l0 25c-7,1 -19,0 -23,-3z"/>
  <path class="fil3" d="M47 45c-1,1 -12,-14 -14,-16l497 0 0 -11 -530 0c7,16 24,27 46,29 1,-1 1,0 1,-2z"/>
  <path class="fil4" d="M322 166l0 27c8,3 15,9 31,3 5,-2 9,-4 12,-9 3,-6 3,-10 2,-17 21,-3 30,-6 32,-32 2,4 3,2 10,8 15,12 36,30 53,36 8,3 24,2 25,-7 -8,-4 -10,-1 -27,-11 -12,-7 -19,-13 -29,-20 -15,-11 -23,-19 -42,-28 -22,-10 -46,-7 -50,18 -2,20 14,17 13,26 0,5 -7,7 -12,8 -7,1 -11,-1 -18,-2z"/>
  <path class="fil4" d="M139 170c8,3 15,8 26,7 23,-2 58,-33 66,-37 -2,9 -3,11 8,20 5,5 13,8 22,9 -1,5 -6,16 9,25 10,7 19,5 30,1l0 -28c-8,1 -30,1 -26,-10 2,-6 14,-8 13,-25 -3,-26 -32,-23 -50,-17 -32,10 -55,46 -98,55z"/>
  <path class="fil4" d="M554 36l0 3 -134 0c-17,0 -101,1 -111,-1 -4,-1 -2,1 -5,-2l156 0c29,0 66,-1 94,0zm-518 -6c9,0 22,0 32,0l349 0c14,0 123,-1 127,1l0 3 -505 0 1 1 108 1c11,0 8,-1 14,1 -2,1 -4,1 -6,2 -24,0 -103,-1 -113,0l0 1c5,1 115,0 130,0 43,1 86,1 129,1 9,0 250,-1 259,0l0 3 -516 0 2 1c7,-1 99,0 112,0l28 1c8,0 7,-1 8,1l-9 0c-3,0 -1,0 -2,1l395 1 0 -31 -49 0 0 11 -496 0 2 1z"/>
  <path class="fil4" d="M279 213c1,-2 1,-2 3,-3 3,0 3,1 4,3l-7 0zm-10 9c5,0 8,4 17,3 5,-1 9,-4 10,-8 2,-9 -13,-14 -24,-7 -7,4 -14,13 -14,24 0,28 45,39 63,50 18,11 19,31 -6,43 2,3 4,3 7,6 3,2 6,4 8,5 5,-2 9,-5 12,-9 2,-2 2,-1 4,-3 14,-19 8,-46 -11,-58 -14,-9 -24,-11 -41,-15 -15,-3 -27,-13 -25,-31z"/>
  <path class="fil4" d="M322 402c10,-1 23,-18 24,-31 2,-22 -22,-35 -38,-45 -12,-8 -25,-17 -19,-34 2,-5 8,-13 11,-15 -2,-3 -15,-8 -16,-8 -9,6 -18,21 -17,37 1,24 26,32 40,42 5,3 12,8 15,11 8,11 5,20 -5,28l-7 6c3,4 9,6 12,9z"/>
  <path class="fil4" d="M319 454c9,-4 17,-16 17,-27 0,-13 -12,-21 -19,-26 -8,-6 -18,-12 -23,-22 -6,-14 6,-23 12,-29 -2,-2 -17,-11 -21,-12 -8,1 -29,48 14,73 7,4 17,7 20,14 4,10 -3,20 -8,24 2,2 5,4 8,5z"/>
  <polygon class="fil5" points="38,34 544,34 544,31 36,30 "/>
  <path class="fil4" d="M303 253l15 4 3 -115c-11,3 -10,2 -19,-1l1 112z"/>
  <path class="fil5" d="M46 44l515 0 0 -3c-9,-1 -250,0 -259,0 -43,0 -86,0 -129,-1l-130 0 3 4z"/>
  <path class="fil4" d="M394 161c2,2 2,1 4,3 1,1 2,2 3,4 9,7 12,10 25,17 8,4 10,5 20,6 9,1 18,1 23,-4 -2,-2 -1,-1 -5,-2 -26,-7 -55,-40 -63,-42 -1,7 -3,13 -7,18z"/>
  <path class="fil4" d="M344 214c-4,0 -5,0 -7,-1 0,-2 2,-2 3,-2 3,0 3,1 4,3zm-24 42c0,4 4,4 8,5 2,1 6,4 7,4 12,1 50,-45 15,-57 -24,-7 -30,14 -14,17 11,3 16,-4 18,-6 0,6 -1,11 -3,15 -4,7 -10,14 -17,18 -6,3 -7,2 -14,4z"/>
  <path class="fil4" d="M314 502c7,-1 15,-12 16,-20 5,-20 -19,-27 -30,-40 -8,-11 -3,-19 2,-27 -5,-2 -9,-6 -13,-8 -7,6 -11,17 -6,29 9,23 31,23 40,39 2,5 1,10 -1,15 -3,6 -6,7 -8,12z"/>
  <path class="fil4" d="M294 545l-1 1c2,2 -2,0 3,2 2,1 1,-1 2,1 1,3 1,26 0,29 -1,2 -1,2 -2,3 -3,2 -1,-1 -3,2 1,0 1,1 2,1l12 0c-1,-4 1,-1 -2,-3 -2,-1 -3,0 -3,-9 0,-6 -1,-12 0,-17 4,6 9,25 13,29l1 0c2,-1 12,-29 12,-29 1,6 1,12 1,17 0,14 -4,6 -6,11 2,1 18,2 20,0 -1,-2 1,-1 -2,-2 -1,0 -2,0 -3,-1 -1,-5 -1,-14 -1,-20 0,-2 0,-8 1,-10 1,-5 4,-1 5,-4 -1,-1 0,-1 -1,-1l-13 0 -11 26 -11 -26c-2,0 -4,0 -7,0 -1,0 -2,0 -3,0 -1,0 -2,0 -3,0z"/>
  <path class="fil4" d="M318 648c-2,-3 -1,-14 -1,-19 0,-7 -1,-11 3,-13 4,-1 1,1 3,-1 -1,-1 0,-1 -2,-1l-5 0c-2,0 -5,0 -7,0l-8 20c-1,3 -1,4 -3,6l-12 -26c-2,0 -4,0 -7,0 -5,0 -4,-1 -6,1 1,2 3,1 5,3 0,4 1,27 0,30 -2,4 -5,0 -5,5l14 0c-1,-7 -2,-1 -5,-5 -1,-2 -1,-21 -1,-24 4,5 10,26 13,29 4,1 10,-22 13,-26 1,-1 1,-1 1,-2 0,5 1,20 0,24 -2,2 -1,0 -3,1 -3,1 -2,-1 -2,3 4,0 18,0 20,-1 -1,-2 1,-1 -2,-2 -3,-1 -2,0 -3,-2z"/>
  <path class="fil4" d="M198 545c-2,0 -12,-1 -14,1 2,1 -2,0 3,1 1,1 2,1 2,1 1,7 1,14 1,21 0,18 -4,9 -5,14 1,1 4,1 7,1 5,0 4,1 6,-1 -1,-3 1,-1 -2,-2 -4,-2 -3,-4 -3,-9 0,-6 0,-11 0,-17 0,1 0,1 0,1 2,3 7,15 10,22 3,7 1,5 4,6 4,-4 9,-22 12,-28 1,5 1,20 0,24 -4,2 -3,1 -4,3 1,1 0,1 5,1l10 0c0,0 2,0 3,0 1,0 1,0 1,-1 -1,-3 -2,-1 -4,-2 -2,-2 -2,-25 -1,-29 0,-7 3,-3 5,-6l-14 -1c-1,3 -8,24 -11,26l-11 -26z"/>
  <path class="fil4" d="M165 180c1,2 3,4 7,5 13,4 21,1 31,-5 7,-5 26,-19 29,-24 -4,-4 -3,-6 -5,-10 -2,1 -5,3 -7,4 -7,6 -13,10 -21,15 -20,11 -26,10 -34,15z"/>
  <path class="fil4" d="M256 545c-5,0 -13,-1 -15,1 1,2 -2,0 1,1 1,1 2,0 3,1 2,2 1,25 1,29 0,7 -4,2 -5,6 2,2 5,1 10,1 1,0 3,0 5,0 4,0 3,0 5,-1 -1,-2 0,-1 -2,-2 -2,0 -2,0 -3,-1 -1,-1 -1,-4 -1,-6 3,-3 15,-15 17,-16 2,33 -2,18 -5,25 1,1 -1,1 2,1 3,0 17,0 18,-1 -1,-4 -5,0 -5,-6 -1,-4 0,-9 0,-13 0,-6 -2,-14 2,-16 2,-2 2,1 3,-2 -1,-1 -18,-1 -18,-1 -2,0 -1,0 -2,1 1,2 -1,0 3,2 4,1 2,6 0,8 -3,3 -12,12 -15,14 0,-5 0,-10 0,-15 0,-9 2,-7 4,-7 2,-1 1,0 2,-2 -2,-1 -1,-1 -5,-1z"/>
  <polygon class="fil5" points="554,39 554,36 39,35 43,39 "/>
  <path class="fil4" d="M446 546c-2,-2 -44,-2 -46,0 1,2 -2,0 1,1 1,1 2,0 3,1 2,2 1,25 1,29 0,7 -4,2 -5,6 1,1 17,2 20,0 -2,-3 0,-1 -3,-2 -4,-1 -3,-6 -3,-13 0,-18 -2,-21 5,-21l8 0c1,0 2,0 2,1 5,1 2,32 2,32 -1,1 -4,0 -5,3 2,2 19,1 20,0 -1,-3 -1,0 -4,-2 -3,-3 -2,-25 -1,-29 0,-7 4,-2 5,-6z"/>
  <path class="fil4" d="M316 138c5,-4 8,-6 7,-16 4,2 5,7 2,10 -2,3 -5,5 -9,6zm-8 -28c-23,5 -13,37 8,32 8,-2 15,-10 13,-20 -2,-8 -11,-15 -21,-12z"/>
  <path class="fil4" d="M344 634c4,-1 8,0 10,3 5,12 -8,17 -10,9 -1,-2 0,-10 0,-12zm0 -17c6,-1 9,1 9,7 0,5 -4,8 -9,6l0 -13zm-12 -3c-4,0 -1,0 -3,1 2,1 -1,0 3,1 1,1 1,1 2,1 2,2 1,28 1,29 -1,7 -5,1 -6,7 8,1 27,0 32,-3 3,-2 6,-8 3,-13 -3,-3 -7,-4 -11,-5 4,-1 8,-3 9,-7 2,-5 -1,-8 -5,-10 -4,-1 -19,-1 -25,-1z"/>
  <path class="fil4" d="M360 569c-3,-28 20,-29 23,-10 1,8 0,19 -6,22 -8,3 -15,-1 -17,-12zm33 0c7,-25 -35,-37 -43,-10 -7,27 36,37 43,10z"/>
  <path class="fil4" d="M192 187c2,5 8,7 15,6 9,-1 20,-10 27,-16 3,-2 9,-7 11,-10 -2,-2 -5,-2 -8,-6l-4 -3c-2,2 -2,2 -4,5l-15 11c-6,5 -13,10 -22,13z"/>
  <path class="fil4" d="M382 170c2,2 3,3 5,5 2,2 3,4 5,6 4,3 8,7 12,10 8,5 24,12 30,0l-3 -2c-16,-7 -21,-11 -34,-22 -2,-2 -1,-3 -4,-4 -2,3 -6,5 -11,7z"/>
  <path class="fil1" d="M360 569c2,11 9,15 17,12 6,-3 7,-14 6,-22 -3,-19 -26,-18 -23,10z"/>
  <path class="fil4" d="M312 326c5,-2 4,-2 4,-8l1 -34c-4,-2 -9,-5 -14,-7l0 43c2,2 7,5 9,6z"/>
  <path class="fil4" d="M217 192c1,2 0,1 2,3 15,10 38,-12 40,-24l-11 -3c-9,8 -13,11 -23,19 -2,1 -6,4 -8,5z"/>
  <path class="fil4" d="M370 171c3,17 15,33 35,29 3,0 5,-1 7,-3 -2,-1 -4,-1 -6,-2 -10,-6 -18,-16 -26,-25l-10 1z"/>
  <path class="fil4" d="M387 625l5 13 -11 0 6 -13zm-4 28c-1,-7 -8,3 -3,-12l13 0c1,2 2,5 2,8 -4,3 -4,-1 -4,4 5,0 15,1 19,-1 -1,-4 -1,0 -4,-4 -2,-2 -11,-28 -14,-33 0,-1 0,-1 0,-1 -1,-1 -3,-2 -4,0l-13 30c-3,9 -5,4 -6,8 3,2 10,1 14,1z"/>
  <path class="fil3" d="M276 240c3,6 15,12 25,12 0,-4 0,-26 -1,-29 -4,3 -5,6 -12,7 -6,1 -9,-2 -15,-3 0,7 2,8 3,13z"/>
  <path class="fil4" d="M262 614c-4,0 -13,-1 -15,1 3,3 0,0 3,2 2,0 2,1 2,3 1,3 0,26 -1,29 -3,2 -3,0 -4,3 3,2 15,1 20,1 0,-4 -1,-3 -4,-4 -2,-4 -2,-27 -1,-30 1,-4 4,-1 5,-4 -1,-1 2,-1 -5,-1z"/>
  <path class="fil4" d="M238 614l-18 0c1,4 -1,1 4,3 1,0 1,1 1,3 1,2 1,7 1,10 0,5 0,15 -1,19 -3,2 -4,0 -5,3 2,1 19,1 20,0 0,-3 1,-1 -2,-2 -2,-1 -2,-1 -3,-3 0,-2 0,-28 1,-29 1,-2 3,-1 5,-3 -2,-1 1,-1 -3,-1z"/>
  <path class="fil4" d="M315 356c-2,-2 -4,-4 -7,-5l-4 3 0 35 4 3c3,-2 5,-3 6,-5l1 -31z"/>
  <path class="fil4" d="M308 527c3,-4 4,-53 4,-60 -2,-2 -4,-4 -7,-5 0,10 -2,60 3,65z"/>
  <path class="fil6" d="M382 197c6,7 18,11 30,7 3,-1 4,-3 6,-2 7,0 15,2 20,-7 7,0 13,2 21,1 8,0 12,-2 15,-7 5,-1 9,-2 13,-4 2,-2 9,-8 2,-9 -2,7 -10,9 -18,10 -1,6 -9,7 -15,8 -8,0 -13,-1 -21,-2 -3,7 -12,8 -21,6 -5,7 -21,7 -32,-1z"/>
  <path class="fil4" d="M302 502c-1,-3 -4,-6 -6,-9 -11,-21 6,-27 7,-32 -2,-2 -6,-4 -8,-5 -13,10 -12,26 -3,39 2,2 7,7 10,7z"/>
  <path class="fil6" d="M323 253l1 -55c4,1 7,4 13,5 14,2 35,-4 35,-20l-2 -3c0,0 0,0 0,0 -3,7 -4,15 -18,19 -16,4 -19,0 -30,-4l-2 59 3 -1z"/>
  <path class="fil1" d="M321 320c5,-1 10,-8 11,-14 0,-4 -1,-7 -2,-11 -1,-1 -2,-2 -3,-4 0,0 -1,-1 -1,-1 -1,-1 0,-1 -2,-1l-2 -1 -1 32z"/>
  <path class="fil4" d="M304 444l5 3c5,-2 4,-5 4,-11 0,-15 3,-15 -9,-19l0 27z"/>
  <path class="fil6" d="M309 529l2 3c5,-4 4,-18 4,-25 13,0 28,-28 15,-40 5,13 3,17 -4,28 -2,2 -3,3 -4,4 -3,3 -4,5 -10,5 0,4 0,9 0,14 0,2 0,4 -1,6 -1,5 -2,4 -2,5z"/>
  <path class="fil1" d="M294 311c1,3 3,6 7,6l0 -31c-1,0 -1,0 -1,0 -4,3 -6,6 -7,11 -2,7 -1,8 1,14z"/>
  <path class="fil6" d="M341 269c10,-4 17,-11 22,-20 4,-9 9,-24 1,-32 5,15 -4,33 -15,42 -1,2 -3,4 -5,5 -2,1 -5,2 -6,3l3 2z"/>
  <path class="fil6" d="M335 342c20,-12 29,-33 20,-54 -1,-2 -2,-3 -2,-4l-3 -3c5,12 8,21 3,36 -3,9 -9,13 -14,18l-5 4c-1,0 -1,0 -2,1 2,1 1,1 3,2z"/>
  <path class="fil6" d="M328 407c7,-6 13,-8 20,-21 5,-12 2,-28 -3,-32 4,13 5,19 -1,31 -5,9 -11,14 -19,19 1,2 1,2 3,3z"/>
  <path class="fil1" d="M344 634c0,2 -1,10 0,12 2,8 15,3 10,-9 -2,-3 -6,-4 -10,-3z"/>
  <path class="fil6" d="M218 197c1,1 0,0 1,1 0,0 1,1 1,1 1,1 2,1 3,1 1,1 3,2 6,2 14,2 24,-13 30,-17l-2 -5 -7 8c-14,11 -17,14 -32,9z"/>
  <path class="fil6" d="M323 458c3,0 8,-6 9,-7 3,-3 5,-6 7,-11 3,-10 2,-19 -4,-25 4,9 5,16 0,25 -4,7 -9,12 -15,16l3 2z"/>
  <path class="fil6" d="M325 164l0 -20c7,-5 10,-12 8,-20 0,-2 -1,-3 -1,-3 0,-1 -1,-2 -1,-2 -1,-1 -1,-1 -2,-1 3,9 2,15 -4,20 -3,4 -2,6 -2,11 0,5 -1,10 0,15l2 0z"/>
  <path class="fil6" d="M276 240c-1,-5 -3,-6 -3,-13 6,1 9,4 15,3 7,-1 8,-4 12,-7l0 -9c0,0 -1,-1 -1,-1 0,0 -1,0 -1,0 0,0 0,0 0,-1 1,8 -3,12 -9,14 -8,3 -12,0 -18,-2 0,7 1,12 5,16z"/>
  <path class="fil6" d="M277 162c4,-4 -1,0 8,-8 12,-11 5,-29 1,-33 2,7 5,15 1,23 -1,4 -3,5 -6,7 -2,3 -5,4 -5,8l1 3z"/>
  <path class="fil3" d="M301 495c1,4 2,3 2,4l0 -29c-3,2 -6,6 -6,12 0,6 3,9 4,13z"/>
  <path class="fil1" d="M344 630c5,2 9,-1 9,-6 0,-6 -3,-8 -9,-7l0 13z"/>
  <path class="fil3" d="M316 495c3,-2 6,-8 6,-13 0,-6 -3,-9 -6,-12l0 25z"/>
  <path class="fil6" d="M294 311c-2,-6 -3,-7 -1,-14 1,-5 3,-8 7,-11l1 -1 0 -6c-3,2 -9,9 -10,14 -3,7 -2,13 3,18z"/>
  <path class="fil6" d="M321 320l1 -32 2 1c-1,-2 -3,-3 -5,-3l-1 36 3 -2z"/>
  <path class="fil6" d="M300 201l0 -4c-15,4 -20,6 -33,-2 8,9 19,9 33,6z"/>
  <path class="fil1" d="M319 382c2,-2 5,-5 5,-10 1,-6 -2,-10 -4,-12l-1 22z"/>
  <path class="fil6" d="M316 495l0 -25 -2 -2 -1 30c1,0 1,0 2,-2 1,-1 0,0 1,-1z"/>
  <path class="fil1" d="M299 384c1,2 -1,0 2,2 0,-1 1,1 1,-5l-1 -18c0,1 0,0 -1,2l-1 3c-1,2 -2,3 -2,5 0,5 2,7 2,11z"/>
  <path class="fil6" d="M301 495c-1,-4 -4,-7 -4,-13 0,-6 3,-10 6,-12l0 -5c-2,3 -17,8 -2,30z"/>
  <polygon class="fil1" points="381,638 392,638 387,625 "/>
  <path class="fil6" d="M299 384c0,-4 -2,-6 -2,-11 0,-2 1,-3 2,-5l1 -3c1,-2 1,-1 1,-2l1 -6c-9,8 -10,17 -3,27z"/>
  <path class="fil6" d="M192 191l-2 -3c-10,0 -14,1 -24,-3 4,6 17,6 26,6z"/>
  <path class="fil6" d="M319 382l1 -22 -3 -2 0 27c2,-2 1,0 2,-3z"/>
  <path class="fil6" d="M218 197c-1,-2 -2,-2 -4,-3 -10,2 -10,2 -19,-1 3,3 4,5 9,5 7,1 9,-1 14,-1z"/>
  <path class="fil6" d="M331 225c3,6 11,6 19,5l1 -5c-8,3 -11,5 -20,0z"/>
  <path class="fil6" d="M302 441c0,-5 -2,-6 -1,-12 1,-4 2,-6 1,-11 -5,6 -5,17 0,23z"/>
  <path class="fil6" d="M163 182l0 -3c-12,0 -15,-3 -24,-6l0 0c6,4 14,8 24,9z"/>
  <path class="fil2" d="M316 138c4,-1 7,-3 9,-6 3,-3 2,-8 -2,-10 1,10 -2,12 -7,16z"/>
  <path class="fil6" d="M315 442c3,-6 5,-13 0,-19l0 19z"/>
  <path class="fil2" d="M337 213c2,1 3,1 7,1 -1,-2 -1,-3 -4,-3 -1,0 -3,0 -3,2z"/>
  <path class="fil2" d="M279 213l7 0c-1,-2 -1,-3 -4,-3 -2,1 -2,1 -3,3z"/>
  <path class="fil7" d="M303 507l0 -2 -5 -2c0,2 -1,1 2,3 1,0 2,0 3,1z"/>
  <path class="fil8" d="M697 200l0 -155 45 0 26 106 27 -106 45 0 0 155 -28 0 0 -122 -29 122 -29 0 -29 -122 0 122 -28 0zm173 0l0 -155 109 0 0 26 -79 0 0 35 74 0 0 26 -74 0 0 42 82 0 0 26 -112 0zm230 -155l0 66c5,0 9,-2 12,-6 2,-3 6,-11 10,-24 6,-16 12,-26 19,-31 6,-4 16,-6 30,-6 1,0 2,0 5,0l0 23 -5 0c-6,0 -10,1 -13,2 -3,2 -5,4 -7,8 -2,3 -4,9 -8,20 -2,5 -4,9 -6,13 -2,4 -6,7 -11,10 7,2 12,6 17,12 4,6 9,15 14,26l20 42 -35 0 -18 -40c0,0 -1,-2 -2,-3 0,-1 -1,-4 -3,-7 -4,-8 -7,-13 -10,-15 -2,-2 -5,-3 -9,-3l0 68 -29 0 0 -68c-3,0 -6,1 -9,3 -2,2 -5,7 -9,15 -2,4 -3,6 -4,7 0,1 -1,2 -1,3l-18 40 -35 0 20 -42c5,-11 10,-19 14,-25 4,-7 10,-11 17,-13 -6,-3 -9,-6 -11,-10 -3,-3 -5,-8 -6,-13 -4,-10 -6,-17 -8,-20 -2,-4 -4,-6 -7,-8 -3,-1 -8,-2 -14,-2 -1,0 -2,0 -4,0l0 -23c2,0 4,0 5,0 14,0 24,2 30,7 7,4 13,14 18,30 5,13 9,21 11,24 3,4 6,6 11,6l0 -66 29 0zm107 0l102 0 0 129 13 0 0 60 -25 0 0 -34 -93 0 0 34 -25 0 0 -60 12 0c7,-13 11,-29 13,-46 2,-18 3,-40 3,-67l0 -16zm28 26c0,47 -4,81 -12,103l56 0 0 -103 -44 0zm94 -26l34 0 34 80 30 -80 31 0 -50 118c-5,13 -11,22 -17,29 -5,7 -13,10 -21,10 -9,0 -16,-1 -21,-2l0 -23c4,0 8,0 11,0 7,0 12,-1 15,-4 3,-2 6,-8 9,-17l-55 -111zm144 155l0 -155 30 0 0 61 59 0 0 -61 30 0 0 155 -30 0 0 -68 -59 0 0 68 -30 0zm283 0l-32 0 -13 -35 -59 0 -13 35 -32 0 58 -155 32 0 59 155zm-55 -61l-20 -58 -20 58 40 0zm71 61l0 -155 48 0c18,0 30,1 36,2 8,3 15,8 21,15 6,8 8,18 8,31 0,9 -1,17 -5,24 -3,6 -7,11 -12,15 -5,4 -10,6 -16,7 -7,2 -17,3 -31,3l-19 0 0 58 -30 0zm30 -129l0 44 16 0c12,0 20,0 24,-2 4,-2 7,-4 9,-8 2,-3 4,-7 4,-12 0,-6 -2,-10 -5,-14 -3,-4 -7,-6 -12,-7 -4,-1 -11,-1 -22,-1l-14 0zm99 52c0,-15 2,-29 7,-39 3,-8 8,-15 14,-22 6,-6 12,-11 19,-14 9,-4 20,-6 32,-6 22,0 39,7 52,21 13,15 20,34 20,60 0,25 -7,45 -20,59 -13,14 -30,21 -52,21 -22,0 -39,-7 -52,-21 -13,-14 -20,-34 -20,-59zm31 -1c0,18 4,31 12,40 7,10 17,14 29,14 12,0 22,-4 30,-13 7,-9 11,-23 11,-41 0,-18 -4,-31 -11,-40 -8,-9 -17,-13 -30,-13 -12,0 -22,4 -30,13 -7,9 -11,23 -11,40zm146 -77l102 0 0 129 13 0 0 60 -25 0 0 -34 -93 0 0 34 -25 0 0 -60 12 0c7,-13 11,-29 13,-46 2,-18 3,-40 3,-67l0 -16zm28 26c0,47 -4,81 -12,103l56 0 0 -103 -44 0zm107 129l0 -155 30 0 0 61 58 0 0 -61 30 0 0 155 -30 0 0 -68 -58 0 0 68 -30 0zm150 -155l30 0 0 62 40 0c11,0 20,1 27,4 8,3 14,9 19,17 5,7 8,16 8,26 0,11 -3,20 -8,27 -5,8 -11,13 -18,15 -6,3 -16,4 -28,4l-70 0 0 -155zm30 129l29 0c10,0 16,-1 20,-2 3,0 7,-3 10,-6 2,-3 4,-7 4,-12 0,-7 -2,-12 -7,-16 -5,-3 -13,-5 -25,-5l-31 0 0 41zm111 -129l30 0 0 155 -30 0 0 -155zm61 0l28 0 0 103 60 -103 30 0 0 155 -28 0 0 -102 -60 102 -30 0 0 -155zm77 -45l14 0c-1,10 -4,17 -10,23 -6,5 -13,8 -22,8 -9,0 -16,-3 -22,-8 -5,-6 -8,-13 -9,-23l14 0c0,5 2,9 5,11 3,3 7,4 12,4 6,0 10,-1 13,-4 3,-2 4,-6 5,-11zm130 45l27 0 0 103 60 -103 30 0 0 155 -28 0 0 -102 -60 102 -29 0 0 -155zm148 155l0 -155 30 0 0 61 58 0 0 -61 30 0 0 155 -30 0 0 -68 -58 0 0 68 -30 0zm244 -57l29 9c-4,17 -12,30 -22,38 -11,9 -24,13 -40,13 -19,0 -35,-7 -48,-21 -13,-14 -19,-34 -19,-58 0,-26 6,-46 19,-60 13,-15 29,-22 50,-22 18,0 33,6 44,17 7,7 12,16 16,29l-30 7c-2,-8 -5,-14 -11,-19 -6,-5 -12,-7 -20,-7 -11,0 -20,4 -27,12 -7,9 -10,22 -10,40 0,20 3,34 10,42 7,9 15,13 26,13 8,0 15,-3 21,-8 5,-5 10,-14 12,-25zm83 57l0 -129 -44 0 0 -26 118 0 0 26 -44 0 0 129 -30 0zm93 -155l28 0 0 103 60 -103 30 0 0 155 -28 0 0 -102 -60 102 -30 0 0 -155zm182 155l0 -129 -44 0 0 -26 118 0 0 26 -44 0 0 129 -30 0zm78 -155l34 0 34 80 30 -80 31 0 -50 118c-6,13 -11,22 -17,29 -6,7 -13,10 -22,10 -9,0 -16,-1 -21,-2l0 -23c5,0 8,0 12,0 7,0 12,-1 15,-4 3,-2 6,-8 8,-17l-54 -111zm177 155l0 -129 -44 0 0 -26 118 0 0 26 -44 0 0 129 -30 0zm-3080 251l0 -155 45 0 26 106 27 -106 45 0 0 155 -28 0 0 -122 -29 122 -29 0 -29 -122 0 122 -28 0zm173 0l0 -155 109 0 0 26 -79 0 0 35 74 0 0 26 -74 0 0 42 82 0 0 26 -112 0zm138 0l0 -155 30 0 0 61 58 0 0 -61 30 0 0 155 -30 0 0 -68 -58 0 0 68 -30 0zm149 0l0 -155 110 0 0 26 -80 0 0 35 74 0 0 26 -74 0 0 42 83 0 0 26 -113 0zm150 -155l102 0 0 129 13 0 0 60 -25 0 0 -34 -93 0 0 34 -25 0 0 -60 13 0c6,-13 10,-29 12,-46 2,-18 3,-40 3,-67l0 -16zm29 26c0,47 -5,81 -13,103l56 0 0 -103 -43 0zm199 -26l0 66c5,-1 9,-2 12,-6 2,-3 6,-11 10,-24 6,-16 12,-26 18,-31 7,-4 17,-6 31,-6 1,0 2,0 4,0l0 23 -4 0c-6,0 -10,1 -13,2 -3,2 -5,4 -7,7 -2,4 -5,10 -8,21 -2,5 -4,9 -6,13 -2,4 -6,7 -11,10 6,2 12,6 16,12 5,6 9,15 15,26l20 42 -35 0 -18 -40c0,-1 -1,-2 -2,-3 0,-1 -2,-4 -4,-8 -3,-7 -6,-12 -9,-14 -2,-2 -5,-3 -9,-3l0 68 -29 0 0 -68c-3,0 -6,1 -9,3 -2,2 -5,7 -9,14 -2,5 -3,7 -4,8 0,1 -1,2 -1,3l-18 40 -35 0 20 -42c5,-11 9,-19 14,-26 4,-6 10,-10 17,-12 -6,-3 -9,-6 -12,-10 -2,-4 -4,-8 -6,-13 -3,-10 -6,-17 -7,-20 -2,-4 -4,-6 -7,-8 -3,-1 -8,-2 -14,-2 -1,0 -2,0 -4,0l0 -23c2,0 4,0 4,0 15,0 25,2 31,6 6,5 12,15 18,31 5,13 8,21 11,24 2,4 6,5 11,6l0 -66 29 0zm94 155l0 -155 45 0 26 106 27 -106 45 0 0 155 -28 0 0 -122 -29 122 -29 0 -29 -122 0 122 -28 0zm173 0l0 -155 109 0 0 26 -79 0 0 35 74 0 0 26 -74 0 0 42 82 0 0 26 -112 0zm138 0l0 -155 30 0 0 61 58 0 0 -61 30 0 0 155 -30 0 0 -68 -58 0 0 68 -30 0zm182 0l0 -129 -43 0 0 -26 117 0 0 26 -44 0 0 129 -30 0zm214 0l-32 0 -13 -35 -60 0 -12 35 -32 0 58 -155 32 0 59 155zm-55 -62l-20 -57 -20 57 40 0zm122 -15c0,-15 3,-29 7,-40 3,-7 8,-15 14,-21 6,-6 12,-11 19,-14 9,-4 20,-6 32,-6 22,0 39,7 52,21 13,15 20,34 20,60 0,25 -6,44 -19,59 -13,14 -31,21 -53,21 -22,0 -39,-7 -52,-21 -13,-14 -20,-34 -20,-59zm31 -1c0,18 4,31 12,40 7,9 17,14 29,14 12,0 22,-5 30,-14 7,-9 11,-22 11,-40 0,-18 -4,-31 -11,-40 -7,-9 -17,-13 -30,-13 -12,0 -22,4 -30,13 -7,9 -11,22 -11,40zm137 -77l111 0 0 26 -81 0 0 36 40 0c11,0 20,1 27,4 8,3 14,8 19,16 5,7 8,16 8,27 0,10 -3,19 -8,27 -5,7 -11,12 -18,15 -6,3 -16,4 -28,4l-70 0 0 -155zm30 129l29 0c9,0 16,-1 20,-2 3,-1 7,-3 10,-6 2,-3 4,-7 4,-12 0,-7 -3,-13 -8,-16 -5,-3 -13,-5 -25,-5l-30 0 0 41zm98 -129l74 0 0 62 40 0c10,0 20,1 27,4 7,3 14,8 19,16 5,8 8,17 8,27 0,10 -3,19 -8,27 -5,7 -11,13 -18,15 -6,3 -16,4 -28,4l-70 0 0 -129 -44 0 0 -26zm74 129l29 0c9,0 16,-1 20,-2 3,-1 7,-3 10,-6 2,-3 4,-8 4,-12 0,-7 -3,-13 -7,-16 -5,-3 -14,-5 -26,-5l-30 0 0 41zm118 26l0 -155 110 0 0 26 -80 0 0 35 74 0 0 26 -74 0 0 42 83 0 0 26 -113 0zm150 -155l102 0 0 129 13 0 0 60 -25 0 0 -34 -93 0 0 34 -25 0 0 -60 13 0c6,-13 10,-29 12,-46 2,-18 3,-40 3,-67l0 -16zm29 26c0,47 -4,81 -13,103l56 0 0 -103 -43 0zm107 -26l28 0 0 103 60 -103 30 0 0 155 -28 0 0 -102 -60 102 -30 0 0 -155zm148 155l0 -155 30 0 0 61 59 0 0 -61 30 0 0 155 -30 0 0 -68 -59 0 0 68 -30 0zm150 0l0 -155 109 0 0 26 -79 0 0 35 74 0 0 26 -74 0 0 42 82 0 0 26 -112 0zm138 0l0 -155 30 0 0 61 58 0 0 -61 30 0 0 155 -30 0 0 -68 -58 0 0 68 -30 0zm150 -155l27 0 0 103 60 -103 30 0 0 155 -28 0 0 -102 -60 102 -29 0 0 -155zm148 0l28 0 0 103 60 -103 30 0 0 155 -28 0 0 -102 -60 102 -30 0 0 -155zm77 -45l14 0c-1,9 -4,17 -10,22 -6,6 -13,9 -22,9 -9,0 -16,-3 -22,-9 -5,-5 -9,-13 -9,-22l14 0c0,5 2,9 5,11 2,3 7,4 12,4 6,0 10,-1 13,-4 3,-2 4,-6 5,-11zm-3290 296l117 0 0 155 -30 0 0 -129 -57 0 0 129 -30 0 0 -155zm148 155l0 -155 48 0c18,0 30,0 35,2 9,2 16,7 22,15 5,8 8,18 8,30 0,10 -1,18 -5,24 -3,7 -7,12 -12,16 -5,4 -10,6 -16,7 -7,2 -17,2 -31,2l-19 0 0 59 -30 0zm30 -129l0 44 16 0c12,0 20,-1 24,-2 4,-2 7,-4 9,-8 2,-3 3,-7 3,-12 0,-6 -1,-10 -4,-14 -3,-4 -7,-6 -12,-7 -4,-1 -11,-1 -22,-1l-14 0zm108 129l0 -155 110 0 0 26 -80 0 0 34 74 0 0 27 -74 0 0 42 83 0 0 26 -113 0zm150 -155l102 0 0 129 13 0 0 60 -25 0 0 -34 -93 0 0 34 -25 0 0 -60 13 0c6,-14 10,-29 12,-46 2,-18 3,-40 3,-67l0 -16zm29 26c0,47 -5,81 -13,103l56 0 0 -103 -43 0zm107 -26l117 0 0 155 -30 0 0 -129 -57 0 0 129 -30 0 0 -155zm148 155l0 -155 48 0c18,0 30,0 36,2 8,2 15,7 21,15 6,8 8,18 8,30 0,10 -1,18 -4,24 -4,7 -8,12 -13,16 -5,4 -10,6 -16,7 -7,2 -17,2 -30,2l-20 0 0 59 -30 0zm30 -129l0 44 16 0c12,0 20,-1 24,-2 4,-2 7,-4 9,-8 2,-3 4,-7 4,-12 0,-6 -2,-10 -5,-14 -3,-4 -7,-6 -12,-7 -4,-1 -11,-1 -22,-1l-14 0zm108 -26l28 0 0 103 60 -103 30 0 0 155 -28 0 0 -102 -60 102 -30 0 0 -155zm149 155l0 -155 30 0 0 61 58 0 0 -61 30 0 0 155 -30 0 0 -68 -58 0 0 68 -30 0zm150 -155l28 0 0 103 60 -103 29 0 0 155 -28 0 0 -102 -60 102 -29 0 0 -155zm148 155l0 -155 44 0 27 106 26 -106 45 0 0 155 -27 0 -1 -122 -29 122 -29 0 -29 -122 0 122 -27 0zm306 0l-33 0 -12 -35 -60 0 -12 35 -32 0 58 -155 31 0 60 155zm-55 -62l-21 -57 -20 57 41 0zm94 62l0 -129 -44 0 0 -26 117 0 0 26 -43 0 0 129 -30 0zm93 0l0 -155 109 0 0 26 -79 0 0 34 74 0 0 27 -74 0 0 42 82 0 0 26 -112 0zm148 -155l104 0 0 155 -30 0 0 -129 -44 0 0 66c0,19 -1,32 -2,40 -1,7 -4,13 -9,18 -5,4 -12,6 -22,6 -3,0 -10,-1 -19,-1l0 -25 7 1c6,0 10,-1 12,-3 3,-2 4,-6 4,-13l-1 -27 0 -88zm135 155l0 -155 110 0 0 26 -80 0 0 34 74 0 0 27 -74 0 0 42 83 0 0 26 -113 0zm138 -155l28 0 0 103 60 -103 30 0 0 155 -28 0 0 -102 -60 102 -30 0 0 -155zm77 -45l14 0c-1,9 -4,17 -10,22 -5,6 -13,9 -22,9 -9,0 -16,-3 -22,-9 -5,-5 -8,-13 -9,-22l14 0c0,5 2,9 5,11 3,3 7,4 12,4 6,0 10,-1 13,-4 3,-2 4,-6 5,-11z"/>
 </g>
</svg>
