<?xml version="1.0" encoding="iso-8859-1"?>
<!-- Generator: Adobe Illustrator 19.0.0, SVG Export Plug-In . SVG Version: 6.00 Build 0)  -->
<svg version="1.1" id="Capa_1" xmlns="http://www.w3.org/2000/svg" xmlns:xlink="http://www.w3.org/1999/xlink" x="0px" y="0px"
	 viewBox="0 0 512 512" style="enable-background:new 0 0 512 512;" xml:space="preserve">
<g>
	<g>
		<g>
			<path d="M45.714,438.857V9.143C45.699,4.1,41.615,0.015,36.571,0H9.143C4.1,0.015,0.015,4.1,0,9.143v493.714
				c0.015,5.043,4.1,9.128,9.143,9.143h493.714c5.043-0.015,9.128-4.1,9.143-9.143v-36.571H73.143
				C58.013,466.241,45.759,453.987,45.714,438.857z"/>
			<path d="M457.143,67.749L289.92,235.063c-3.593,3.565-9.39,3.565-12.983,0L224,182.034l-94.08,94.171
				c-3.593,3.566-9.39,3.566-12.983,0L64,223.177v56.503l59.429,59.429l94.08-94.171c3.593-3.565,9.39-3.565,12.983,0l52.937,53.029
				l167.223-167.314c3.593-3.565,9.39-3.565,12.983,0L512,179.109v-56.503L457.143,67.749z"/>
			<path d="M289.92,317.349c-3.593,3.566-9.39,3.566-12.983,0L224,264.32l-94.08,94.171c-3.593,3.565-9.39,3.565-12.983,0
				L64,305.463v133.394c0.015,5.043,4.1,9.128,9.143,9.143H512V204.891l-54.857-54.857L289.92,317.349z"/>
		</g>
	</g>
</g>
<g>
</g>
<g>
</g>
<g>
</g>
<g>
</g>
<g>
</g>
<g>
</g>
<g>
</g>
<g>
</g>
<g>
</g>
<g>
</g>
<g>
</g>
<g>
</g>
<g>
</g>
<g>
</g>
<g>
</g>
</svg>
