<svg id="Layer_1" enable-background="new 0 0 496 496" height="512" viewBox="0 0 496 496" width="512" xmlns="http://www.w3.org/2000/svg"><path d="m175.383 464h-62.741c-30.163 0-52.813-27.479-47.14-57.046l26.178-136.426c14.605-76.114 92.566-122.858 166.688-99.566 8.431 2.649 17.412-2.037 20.061-10.467 2.639-8.4-2.006-17.344-10.379-20.028 11.335-21.383 4.143-48.292-17.194-61.006l30.56-55.772c5.829-10.642-1.881-23.689-14.033-23.689h-104c-12.135 0-19.87 13.032-14.032 23.688l30.56 55.772c-22.265 13.267-28.947 41.777-15.896 63.31-52.322 19.09-92.785 64.519-103.762 121.729l-26.177 136.426c-9.475 49.373 28.39 95.075 78.566 95.075h62.741c8.836 0 16-7.163 16-16s-7.163-16-16-16zm64.989-432-22.466 41h-5.045l-22.466-41zm-36.989 101c-7.72 0-14-6.28-14-14 0-7.698 6.255-14 14.009-14h23.881c8.079 0 14.11 6.489 14.11 14 0 7.72-6.28 14-14 14zm157.769 159.231c6.249 6.248 6.249 16.379 0 22.627l-78.909 78.91c-3.125 3.124-7.219 4.687-11.314 4.687-14.125 0-21.423-17.205-11.314-27.313l78.909-78.91c6.249-6.249 16.38-6.249 22.628-.001zm-17.89 68.963c-11.723 0-21.261 9.537-21.261 21.261 0 11.723 9.538 21.26 21.261 21.26s21.261-9.537 21.261-21.26c0-11.724-9.537-21.261-21.261-21.261zm-65.757-36.388c11.723 0 21.261-9.537 21.261-21.261 0-11.723-9.538-21.26-21.261-21.26s-21.261 9.537-21.261 21.26c0 11.724 9.537 21.261 21.261 21.261zm32.878-134.806c-84.364 0-153 68.636-153 153s68.636 153 153 153 153-68.636 153-153-68.635-153-153-153zm0 274c-66.72 0-121-54.28-121-121s54.28-121 121-121 121 54.28 121 121-54.28 121-121 121z"/></svg>