<?xml version="1.0" encoding="UTF-8"?>
<!DOCTYPE svg PUBLIC "-//W3C//DTD SVG 1.1//EN" "http://www.w3.org/Graphics/SVG/1.1/DTD/svg11.dtd">
<!-- Creator: CorelDRAW X7 -->
<svg xmlns="http://www.w3.org/2000/svg" xml:space="preserve" width="1213px" height="211px" version="1.1" style="shape-rendering:geometricPrecision; text-rendering:geometricPrecision; image-rendering:optimizeQuality; fill-rule:evenodd; clip-rule:evenodd"
viewBox="0 0 1367 237"
 xmlns:xlink="http://www.w3.org/1999/xlink">
 <defs>
  <style type="text/css">
   <![CDATA[
    .fil0 {fill:#927C2E}
    .fil1 {fill:#2E2A23;fill-rule:nonzero}
   ]]>
  </style>
 </defs>
 <g id="Слой_x0020_1">
  <metadata id="CorelCorpID_0Corel-Layer"/>
  <path class="fil0" d="M0 115c0,37 6,71 37,95 34,27 56,27 99,27l0 -47c-91,0 -105,-61 -82,-99 10,-16 30,-27 49,-27l160 0 0 -52c-56,0 -103,-2 -144,-1 -65,2 -119,41 -119,104z"/>
  <path class="fil0" d="M56 125c0,30 19,45 47,52 10,2 21,3 32,3l0 -46c-7,0 -12,0 -16,0 -20,0 -18,-15 -5,-16 37,-1 125,0 149,0l0 -45 -160 0c-26,0 -47,25 -47,52z"/>
  <polygon class="fil0" points="150,237 197,237 197,134 150,134 "/>
  <polygon class="fil0" points="216,237 263,237 263,134 216,134 "/>
  <path class="fil1" d="M438 210c-2,7 -4,11 -10,15 -17,8 -34,12 -52,12 -25,0 -47,-4 -64,-25 -23,-30 -16,-67 -4,-100 14,-31 37,-58 71,-79 33,-22 67,-33 104,-33 8,0 23,-2 22,10l-19 51c-1,3 -2,5 -3,6 -1,2 -3,3 -6,3 -1,0 -2,-1 -4,-2 -3,-2 -5,-6 -4,-11 0,-6 3,-13 4,-18 0,-5 2,-9 2,-14 1,-10 0,-14 -11,-14 -50,0 -92,48 -112,90 -11,23 -17,44 -18,63 -2,18 1,33 9,45 7,11 18,17 33,17 34,0 45,-28 58,-54 4,-8 6,-15 15,-15 5,0 4,6 4,10l-15 43z"/>
  <path class="fil1" d="M541 173c7,-18 10,-34 11,-48 1,-8 0,-28 -12,-28 -10,0 -19,11 -24,18 -4,9 -10,21 -15,37 -6,19 -10,35 -11,47 -1,15 5,38 24,23 14,-10 22,-33 27,-49zm-41 -63c10,-10 24,-20 39,-20 31,0 35,35 33,59 -1,11 -3,23 -8,33 -9,19 -21,36 -39,46 -16,9 -33,10 -45,-6 -14,-20 -9,-60 1,-82 4,-11 11,-21 19,-30z"/>
  <path class="fil1" d="M691 213c-9,10 -26,22 -41,22 -27,0 -33,-33 -32,-54l2 -16 -18 0c-1,1 -4,12 -12,34 -1,5 -7,29 -12,31 -3,2 -6,1 -9,1 -12,0 -7,-9 -5,-17l34 -100c0,-4 -4,-3 -6,-1 -4,3 -7,7 -11,12 -3,5 -7,13 -12,17 -4,-6 6,-18 9,-23 6,-7 11,-13 15,-17 5,-5 14,-11 21,-11 7,0 10,5 9,12 0,9 -5,17 -8,26l-11 29 18 0c4,-19 13,-35 25,-48 9,-10 24,-20 39,-20 8,0 15,3 21,9 10,11 13,32 12,46 -2,27 -10,47 -28,68zm-41 14c8,0 17,-9 20,-15 6,-7 12,-20 18,-39 4,-11 24,-76 -2,-76 -9,0 -18,11 -23,18 -12,20 -24,61 -26,84 -1,9 1,28 13,28z"/>
  <path class="fil1" d="M741 235c-12,0 -20,-8 -24,-24 -1,-7 -1,-16 -1,-24 0,-2 1,-10 5,-10 0,0 2,6 4,20 3,13 8,20 16,20 9,0 16,-4 23,-13 8,-10 16,-29 9,-41 -3,-5 -6,-6 -11,-4 -3,1 -11,4 -11,-1 0,-2 3,-5 5,-5 8,0 13,-4 19,-9 9,-8 18,-31 12,-43 -4,-7 -13,-5 -18,-1 -3,3 -7,9 -11,17 -3,4 -6,13 -12,13 -2,0 -3,-1 -3,-4 0,-5 6,-24 9,-27 5,-7 13,-10 24,-10 8,0 16,2 22,6 8,5 12,11 11,20 -1,12 -5,21 -12,28 -4,4 -10,7 -18,10 6,2 10,5 13,9 5,5 7,10 6,17 -1,14 -7,27 -18,38 -11,12 -24,18 -39,18z"/>
  <path class="fil1" d="M824 87l91 0 0 145 -35 0 0 -103 -21 0 0 103 -35 0 0 -145zm131 0l39 0 34 145 -38 0 -3 -23 -26 0 -3 23 -36 0 33 -145zm26 92l-3 -16c-2,-11 -3,-22 -3,-33l-1 0c-1,11 -2,22 -4,33l-3 16 14 0zm65 -50l-20 0 0 -42 74 0 0 42 -19 0 0 103 -35 0 0 -103zm65 -42l64 0 0 39 -29 0 0 14 26 0 0 35 -26 0 0 15 30 0 0 42 -65 0 0 -145zm80 0l35 0 0 50 21 0 0 -50 35 0 0 145 -35 0 0 -54 -21 0 0 54 -35 0 0 -145zm122 41l-20 0 0 -41 74 0 0 41 -19 0 0 104 -35 0 0 -104z"/>
 </g>
</svg>
