<?xml version="1.0" encoding="UTF-8"?>
<!DOCTYPE svg PUBLIC "-//W3C//DTD SVG 1.1//EN" "http://www.w3.org/Graphics/SVG/1.1/DTD/svg11.dtd">
<!-- Creator: CorelDRAW X7 -->
<svg xmlns="http://www.w3.org/2000/svg" xml:space="preserve" width="1298px" height="268px" version="1.1" style="shape-rendering:geometricPrecision; text-rendering:geometricPrecision; image-rendering:optimizeQuality; fill-rule:evenodd; clip-rule:evenodd"
viewBox="0 0 559 115"
 xmlns:xlink="http://www.w3.org/1999/xlink">
 <defs>
  <style type="text/css">
   <![CDATA[
    .fil0 {fill:#5989C0;fill-rule:nonzero}
    .fil3 {fill:#608EC1;fill-rule:nonzero}
    .fil4 {fill:#A3A3A7;fill-rule:nonzero}
    .fil2 {fill:#F2A548;fill-rule:nonzero}
    .fil1 {fill:#F3A04F;fill-rule:nonzero}
   ]]>
  </style>
 </defs>
 <g id="Layer_x0020_1">
  <metadata id="CorelCorpID_0Corel-Layer"/>
  <path class="fil0" d="M38 18c-3,-2 -5,-2 -6,-2 -1,0 -2,0 -4,2 -6,4 -15,12 -21,20 -4,6 -6,11 -6,15 0,17 20,38 31,38 7,0 31,-18 31,-38 0,-12 -17,-28 -25,-35z"/>
  <path class="fil0" d="M85 19c-2,-2 -3,-3 -4,-3 -1,0 -2,1 -4,4 -6,8 -14,24 -14,33 0,22 14,38 18,38 5,0 18,-20 18,-38 0,-12 -9,-27 -14,-34z"/>
  <path class="fil0" d="M137 20c-3,-3 -5,-4 -7,-4 -2,0 -3,1 -6,3 -10,7 -25,23 -25,34 0,18 20,38 31,38 7,0 31,-17 31,-38 0,-10 -15,-26 -24,-33z"/>
  <path class="fil1" d="M85 20c-1,0 -1,0 -2,0 0,0 0,0 0,-1 1,0 1,0 2,1z"/>
  <path class="fil1" d="M82 20c0,0 1,1 -1,1 0,0 0,-1 0,-1 0,0 1,-1 1,0z"/>
  <path class="fil1" d="M87 23c0,0 0,0 0,0 -1,0 0,0 0,1 0,0 -1,-1 -1,-1 0,0 -1,-1 0,-2 0,0 1,1 1,2z"/>
  <path class="fil1" d="M76 26c0,1 -2,1 -2,1 0,0 1,-1 1,-2 0,0 0,1 1,1z"/>
  <path class="fil1" d="M95 62c-1,1 -1,2 -1,3 -1,0 -1,2 -3,2 0,0 0,-1 0,-2 1,0 0,-2 2,-2 0,0 1,-3 2,-1z"/>
  <path class="fil1" d="M96 44c0,1 1,1 1,1 0,0 0,0 0,0 0,-1 0,-1 -1,-1zm-8 -1l0 0c-1,0 -1,0 -1,0l1 2c0,0 1,1 1,2 1,1 1,2 2,2 0,-1 0,-1 -1,-2 -1,0 0,-2 -2,-2 0,-1 0,-1 0,-2zm5 -1l0 0c0,1 1,1 1,2 0,0 1,1 1,1 1,-1 1,-1 1,-1 -1,0 -1,-1 -2,-1 0,0 -1,-1 -1,-1zm-13 -6l0 0 0 0c0,0 1,1 1,1 0,1 0,1 0,1 0,0 -1,1 -1,1 0,0 -1,0 -1,0 0,-1 1,-1 1,-1 0,-1 -1,-1 -1,-1 0,-2 -1,0 -2,-1 -1,1 -2,1 -2,2 0,0 0,0 0,0 -1,1 -1,1 -2,1l0 1c1,0 3,-1 4,-1 1,0 1,0 2,0 -1,0 0,1 -1,1 0,0 1,0 1,1 1,-1 1,1 3,1l0 -1c1,-1 1,0 2,0 1,1 2,0 3,0 0,0 0,-1 0,-1 0,-1 0,-1 0,-1 -1,1 0,1 0,1 0,0 0,0 -1,0 0,0 0,0 0,-1 0,0 -1,0 -1,1 0,0 0,0 0,-1 -1,1 -1,-1 -2,-1 0,0 0,0 0,1 0,0 0,0 0,0 0,0 0,1 -1,0 0,0 0,0 0,-1 -1,0 0,-1 -1,-1 -1,0 -1,-1 -1,-1zm5 -1l0 0c0,0 0,1 -1,1 0,0 0,1 1,1 0,0 0,0 0,0 1,-1 2,0 3,0 0,-1 -1,-1 -1,-1 -1,0 -1,-1 -2,-1zm6 0l0 0c0,0 -1,0 -1,0 1,1 1,2 2,2 0,1 0,1 0,2 1,0 1,0 2,0l0 0c-1,-1 -1,-1 -1,-2 0,0 0,0 0,0l0 0c-1,0 -1,-1 -2,-1 0,-1 1,-1 1,-1 0,0 -1,0 -1,0zm-10 -7l0 0c1,1 0,1 0,2l0 0c1,0 1,0 1,0 -1,0 -2,1 -2,1 0,0 0,0 0,0 0,1 1,0 1,0 1,0 1,0 1,-1 0,0 1,0 1,-1l-1 0c0,0 0,-1 0,-2 -1,0 -1,1 -1,1zm4 -2l0 0 -1 0c1,1 1,0 1,0 0,0 0,0 0,0zm3 -2l0 0c4,7 9,13 10,22 0,0 0,1 0,1 -1,0 -1,1 -2,1 -1,1 -3,1 -4,2 0,0 0,0 0,0 0,1 0,1 0,1 1,0 2,0 3,-1 0,2 -1,3 -1,4 -1,1 -2,2 -4,3 0,0 0,1 0,1 0,0 0,0 0,0 0,1 0,1 0,2 0,1 1,2 0,3 -1,0 -2,1 -2,2 0,0 0,1 0,2 -1,0 -2,1 -2,1 -1,2 -2,4 -4,3 -1,1 -1,0 -1,0 0,-2 -2,-3 -2,-4 0,-2 -2,-4 0,-6 -1,-1 0,-2 -1,-3 0,-1 -2,-2 -1,-3 0,0 1,-1 0,-1 -1,0 -2,0 -2,-1 0,0 -1,0 -2,0 -1,2 -2,-1 -4,1 -1,-1 -2,-1 -2,-3 -1,0 -1,0 -1,-1 0,-2 1,-3 0,-4 2,-1 2,-3 4,-3 0,-2 1,-3 2,-3 0,0 1,0 0,-1 0,0 0,0 0,0 -1,-1 0,-2 0,-3 1,0 3,1 3,-1 1,-1 -1,-1 0,-1 0,0 1,-1 1,-1 0,0 0,0 -1,0 0,0 0,0 -1,0 0,0 1,0 1,-1 -1,0 -2,1 -2,0 1,-1 1,-1 2,-1 0,-1 1,-1 1,-2 0,0 0,1 1,1 -1,0 0,2 -1,2 0,1 0,1 1,1 0,0 0,-1 0,-1 1,-1 2,0 2,-2 0,0 1,0 1,-1 -1,0 -1,1 -2,0 0,0 0,-1 0,-1 1,-1 2,-1 2,-2 0,0 1,-1 1,-1 0,-1 1,-2 2,-1 0,1 2,0 2,1 1,0 1,0 1,0 0,0 0,0 0,0 0,-1 2,1 1,-1 0,0 0,0 1,0z"/>
  <path class="fil1" d="M127 47c0,1 -1,1 -1,1 1,0 1,2 2,1 0,0 0,1 0,1l0 0c0,1 0,1 0,2 0,0 0,1 -1,1 0,-1 -1,-1 0,-2 -1,0 0,-1 -1,-1 0,0 1,0 1,0 0,0 0,0 0,0 0,0 1,0 0,0 0,-1 0,0 0,0 0,-1 0,-1 -1,-1 0,0 0,0 0,0l0 0c0,1 0,0 0,0 0,0 -1,-1 0,-2l0 0c0,0 1,0 1,0z"/>
  <path class="fil1" d="M140 57c0,0 -1,1 -1,1 0,0 1,0 0,0 0,1 0,0 0,0 -1,0 -1,0 -1,0 0,-1 1,0 1,-1 0,0 1,0 1,0 0,0 -1,0 -1,-1 0,0 1,1 1,1z"/>
  <path class="fil1" d="M143 59c0,0 0,1 0,1 0,0 0,0 0,-1 0,0 0,0 0,0z"/>
  <path class="fil1" d="M127 23c-1,0 -1,1 -1,1 2,0 0,2 1,2 1,0 1,-1 2,0 0,0 0,0 0,1 1,0 1,0 1,-1l0 0c1,0 0,0 1,0 0,0 0,0 0,0 1,1 1,1 1,1 1,0 1,0 2,0 0,0 0,0 0,1 1,-1 1,-1 2,-1 0,1 0,1 1,0 1,2 3,1 3,3 -1,0 -1,-1 -2,0 0,0 1,0 1,1 0,0 -1,0 -1,1l0 0c0,0 0,0 0,0 -1,-1 -1,0 -1,0 0,0 -1,1 0,1 0,1 0,1 0,2 0,0 -1,1 -1,1l0 0c0,0 0,0 0,0 0,-1 -2,-3 0,-4 0,0 -1,0 -1,-1 -1,0 -1,2 -1,1 -1,1 -1,0 -2,0 0,1 -1,1 -1,2 0,0 0,0 1,1 0,0 0,-1 0,-1 1,1 0,2 1,2 0,1 -1,1 0,2 0,0 0,0 0,0 0,1 1,1 1,1 0,1 -1,1 -1,1 -1,0 0,1 0,2 0,0 0,1 -1,1 0,0 -1,0 -1,1 0,-1 -1,0 -1,0 0,0 0,1 -1,1 0,-1 0,-1 0,-1 0,-1 2,-1 2,-2 1,0 1,-1 1,-2 0,0 0,0 0,0 1,-1 0,-1 1,-2 -1,0 -1,-1 -1,-2 0,1 0,1 0,1 -1,1 -1,2 -2,3 -1,-1 -1,1 -2,1 0,1 1,1 1,2 -1,0 -1,0 -1,0 -1,0 0,-1 -1,-1 0,-1 0,-1 -1,-1l0 0c0,0 0,0 -1,0 0,0 0,0 0,1 0,0 0,0 0,0 0,-1 1,0 1,0l0 0c0,0 -1,0 -1,1 1,0 0,1 1,1 0,2 -1,3 -3,5 0,0 -1,0 -2,0 -1,0 0,1 0,1 0,0 -1,1 -1,1 0,0 0,-1 0,-1 0,0 0,0 0,-1 0,0 0,0 -1,0 0,0 0,1 0,1 -1,1 2,2 1,4 -1,1 -2,0 -2,1 -1,0 0,0 0,-1 -1,0 -1,-1 -2,-1 0,0 -1,1 -1,1 1,1 0,2 2,2 0,1 0,1 0,2 0,0 0,0 0,0 0,1 0,1 0,1l0 0c0,0 0,0 1,1 0,0 0,0 0,0 0,0 1,0 1,0 0,0 0,0 0,0 0,0 0,0 -1,0 0,1 0,2 -1,2 -1,-2 -2,-4 -4,-5 0,-1 1,0 1,0 1,0 2,1 2,1 0,1 1,0 1,0 -1,-1 -1,-2 -2,-3 0,-1 0,-2 0,-3 -1,-1 -1,0 -2,0 1,-1 1,-2 0,-3 0,0 0,0 0,0 -1,0 -2,0 -2,1 -1,0 -2,1 -2,1 -1,1 -2,1 -2,2 0,1 -1,1 -1,1 0,1 0,1 0,1 -1,-1 -1,-3 -2,-4 0,-1 1,-1 1,-2 -1,1 -1,0 -1,0 0,-1 -1,-1 -1,-1l0 -1c-1,0 -2,1 -3,0 1,-1 2,-3 3,-5 3,-7 10,-12 15,-16 1,-1 2,-2 4,-2 1,0 0,0 0,0 -1,1 -2,2 -3,3 -1,0 0,1 0,1 0,-1 1,-1 2,-2 0,0 1,0 1,0 1,-1 2,-1 3,-2 1,0 1,0 1,0 0,-1 -1,-1 0,-2 0,0 0,1 1,1z"/>
  <path class="fil1" d="M131 25c0,0 0,0 0,0 0,0 0,0 0,0 0,0 0,0 0,0 -1,0 -1,0 -1,0 -1,-1 1,-1 1,0z"/>
  <path class="fil1" d="M136 27c0,0 0,0 0,0 0,0 0,0 0,0 0,0 0,-1 0,0z"/>
  <path class="fil1" d="M144 31c0,0 1,0 0,1 0,0 -1,0 -1,0 0,-1 -1,-1 -1,-2 0,-1 -1,0 -2,-1l0 0c0,-1 -1,-1 -1,-2 2,0 3,2 5,4z"/>
  <path class="fil1" d="M141 30c0,0 0,0 -1,0 0,0 1,0 1,0z"/>
  <path class="fil1" d="M147 34c0,1 -1,0 -1,0 0,0 0,-1 0,-1 0,0 0,1 1,1z"/>
  <path class="fil1" d="M135 38c0,0 0,1 0,1 -1,0 -1,0 -1,0 0,-1 0,-1 1,-1z"/>
  <path class="fil1" d="M126 47c-1,1 -1,1 -1,2 -1,0 0,-1 0,-1 0,0 0,-1 1,-1z"/>
  <path class="fil1" d="M124 54c0,0 0,1 -1,1l0 0c0,0 1,-1 1,-1z"/>
  <path class="fil1" d="M107 55c0,0 1,1 0,1 0,0 0,0 -1,0 0,-1 1,-1 1,-1 0,0 0,0 0,0z"/>
  <path class="fil1" d="M124 57c0,0 0,0 -1,0 1,1 0,1 0,2 0,1 0,1 -1,2 -1,-1 -2,0 -2,-2 -1,0 -1,0 -1,-1 0,0 1,0 1,0 1,-1 2,-1 3,-2 0,0 0,1 1,1z"/>
  <path class="fil1" d="M128 58c0,0 0,1 0,2 0,-1 -1,-1 -1,-2 1,0 1,0 1,0z"/>
  <path class="fil1" d="M127 58c-1,1 -2,1 -1,1 0,1 -1,1 -1,2 1,0 1,0 1,0l0 1c-1,-1 -1,-1 -1,-1 0,0 0,1 -1,1 0,-1 0,-1 0,-2 0,0 0,-1 0,-2 1,1 1,1 2,1 0,0 0,-1 1,-1z"/>
  <path class="fil1" d="M129 59c1,0 2,0 2,1 0,1 1,-1 2,0 1,0 3,1 3,2 0,0 1,1 1,1 1,0 1,0 1,0 0,1 -1,1 -2,1 0,-1 0,-1 -1,-1 0,0 0,0 0,0 0,0 0,1 -1,0 -1,1 -1,-1 -2,0 0,0 0,0 0,-1 1,0 1,0 0,0 0,-1 -1,-1 -2,-1 0,-1 0,-1 -1,-2 0,0 0,0 0,0l0 0z"/>
  <path class="fil1" d="M129 60c0,0 -1,1 -1,1l0 0c0,-1 1,-1 1,-1z"/>
  <path class="fil1" d="M128 61c-1,0 -1,0 -1,0 0,0 0,-1 0,-1 0,0 1,0 1,1z"/>
  <path class="fil1" d="M131 62c0,0 0,0 -1,0l1 0c0,0 0,0 0,0z"/>
  <path class="fil1" d="M140 62l0 0c0,0 0,0 0,0 0,0 -1,0 -1,0 1,-1 1,0 1,0z"/>
  <path class="fil1" d="M127 63l-1 1c0,0 0,0 0,-1 0,0 0,0 0,0 0,0 -1,0 -1,0 -1,0 0,1 -1,1 0,0 0,0 0,-1l0 0c0,0 0,0 0,0l0 0c1,0 2,-1 3,0l0 -1c0,1 0,1 0,1z"/>
  <polygon class="fil1" points="129,62 129,62 129,63 129,63 "/>
  <path class="fil1" d="M141 63c0,0 0,0 0,0 0,0 0,0 0,0l0 0z"/>
  <path class="fil1" d="M139 64c0,0 0,0 -1,0 0,0 0,0 0,0 0,0 1,0 1,0z"/>
  <path class="fil1" d="M143 64l-1 0 0 0c0,0 1,0 1,0z"/>
  <path class="fil1" d="M135 65c1,1 0,3 1,3 1,1 1,2 2,3 0,0 0,1 0,2 0,1 -2,2 -2,3 -1,0 -1,0 -2,1 0,-1 -1,0 -2,-1 0,0 0,-1 -1,-1 0,0 0,0 0,0 -1,0 -1,-2 -2,-2 -2,0 -3,2 -4,2 -1,0 -1,0 -2,0 0,-1 1,-2 0,-2 -1,-2 -1,-3 -1,-4 1,0 1,-1 2,-1 0,-1 1,0 1,-1 0,0 0,-1 1,-1 0,1 0,0 1,0 -1,0 0,0 0,-1 1,0 1,1 2,0 0,0 0,0 0,-1 0,0 0,0 0,0 0,0 0,1 0,1 1,-1 1,-1 1,-1 0,0 1,1 1,0 1,1 0,2 1,3 0,0 0,0 1,0 0,-1 0,-1 0,0 1,-1 0,-2 1,-3 0,0 1,1 1,1z"/>
  <path class="fil1" d="M145 66c0,0 -1,0 -1,0 0,0 0,0 0,0 1,0 1,0 1,0z"/>
  <path class="fil2" d="M150 67c0,0 0,0 0,0 -1,0 0,-1 0,-1 0,0 0,1 0,1z"/>
  <path class="fil2" d="M149 67c1,0 0,0 0,1 0,0 0,0 0,-1 0,0 0,0 0,0z"/>
  <path class="fil2" d="M150 68c0,0 0,0 -1,0 0,0 1,0 1,0 0,0 0,0 0,0z"/>
  <path class="fil2" d="M150 68c0,0 0,0 0,0 0,0 1,0 0,0z"/>
  <path class="fil1" d="M144 69c0,0 0,0 -1,0 0,0 0,0 0,-1 0,0 0,1 1,1z"/>
  <path class="fil1" d="M145 76c1,1 0,1 0,1 -1,1 -1,1 -2,1 0,0 -1,1 -1,1 -1,0 -1,2 -2,1 0,-1 1,-1 1,-1 1,0 1,-2 2,-1 0,0 1,0 1,-1 0,0 0,0 0,0 0,0 0,-1 0,-1 0,-1 0,-1 0,-1l0 0c1,0 1,1 1,1z"/>
  <path class="fil1" d="M135 78c0,0 0,1 -1,1 0,0 -1,-1 0,-1l1 0z"/>
  <path class="fil1" d="M127 55c0,0 -1,0 -1,0 0,0 0,0 0,0 0,0 0,-1 1,0z"/>
  <path class="fil1" d="M125 59c0,0 0,0 0,0l0 0 0 0c0,0 0,0 0,0z"/>
  <path class="fil1" d="M34 34l0 1c1,0 1,0 1,0 0,0 0,-1 0,-1l-1 0zm-1 -1l0 0 0 0c0,1 0,1 1,1l0 -1c0,0 -1,0 -1,0zm2 -7l0 0c-1,1 1,0 1,1l-1 -1zm-2 0l0 0c-1,0 -1,1 -1,1 -1,0 0,1 -1,1 1,0 0,1 1,1 0,1 1,1 2,1 0,0 0,0 0,1 1,0 1,0 1,0 0,0 0,-1 0,-2 -1,0 0,-2 -1,-3 0,0 0,1 0,1 -1,0 -1,-1 -1,-1zm-4 -2l0 0 0 0 0 0c0,0 0,0 0,0zm1 0l0 0c0,0 0,0 0,0 0,0 1,0 1,0 0,0 0,0 -1,0zm4 0l0 0c-1,-1 0,1 -1,1 1,0 1,1 2,1 0,0 0,0 -1,0 0,-1 1,-1 1,-2l-1 0zm-2 -2l0 0 0 0c0,1 0,2 1,2 0,-1 -1,-1 -1,-2zm-1 -2l0 0 -1 0c0,0 1,0 1,0l0 0zm1 -1l0 0 0 1 0 0c0,0 0,-1 0,-1zm2 -1l0 0c0,0 0,0 0,0 -1,1 -1,0 -1,0 0,0 1,0 1,0zm4 65l0 0c0,0 0,1 -1,1 0,1 -1,1 -2,1 2,1 2,-1 3,-1l0 -1zm4 -1l0 0c0,0 0,0 0,0l-1 0 0 0 1 0zm3 -3l0 0c0,1 1,1 1,1 0,0 0,-1 0,-1 0,0 -1,0 -1,0zm-5 -1l0 0c0,0 0,0 0,0 0,1 0,0 1,0 -1,0 -1,0 -1,0zm-34 -16l0 0c0,0 1,0 1,0 0,0 0,0 0,0 0,0 -1,0 -1,0zm36 -15l0 0c0,0 0,0 0,0 0,0 0,0 0,0 0,-1 0,-1 0,0zm-5 -1l0 0c0,1 0,1 0,1 0,0 1,0 1,0 0,-1 -1,-1 -1,-1zm-33 -1l0 0c0,1 0,1 1,1 0,0 0,0 0,-1 0,0 0,0 -1,0zm31 -1l0 0c-1,1 -1,1 -1,1 1,0 1,-1 1,0 1,0 2,0 3,1 0,0 1,-1 1,0l-1 0c1,1 1,1 2,1 0,0 1,0 1,0 0,-1 -1,-1 -1,-1 -1,0 -2,-1 -3,-1 -1,0 -1,-1 -2,-1zm3 -1l0 0c0,1 0,1 0,1 -1,0 -1,-1 0,-1 0,0 0,0 0,0zm-2 -26l0 0c2,2 5,4 7,6 1,1 -1,1 -1,2 0,0 0,0 0,1 0,0 0,1 1,2l0 0c-1,0 -2,-1 -2,-1 -1,0 -2,-2 -3,-3 1,-1 -1,0 0,-1 -1,-1 -2,-3 -3,-3 -1,0 -1,-1 -1,-1 0,0 0,0 0,0 -1,0 0,0 -1,1 0,0 1,1 0,1 0,1 1,0 1,1 1,0 1,1 1,1 1,0 1,1 1,1 1,1 2,1 2,1 -1,1 0,1 -1,2 0,0 -1,-1 -1,0 0,1 2,0 1,1 0,0 0,0 1,0 0,0 0,0 0,0 1,1 2,2 3,3 0,0 1,0 1,1 0,0 0,1 1,1 0,0 0,0 0,1 -1,0 -1,-1 -2,-1 0,0 0,-1 0,-1 0,0 0,0 -1,0l0 1c0,0 0,-1 0,0 0,0 0,1 0,1 1,0 1,0 1,0 0,0 1,0 1,0 -2,0 -2,2 -3,1 0,0 0,0 -1,0l1 1c-1,0 -2,1 -2,2 0,0 0,0 0,1 0,0 -2,1 -1,2 -1,1 0,1 0,2 0,0 0,1 0,1 -1,-1 -1,-2 -1,-2 -1,-1 -2,-1 -2,-1l0 1c-1,0 -2,-1 -3,0 0,0 0,0 -1,0 0,1 -1,3 1,4 0,0 1,1 1,0 0,0 1,0 1,0l0 -1 1 0c0,1 0,2 0,2 0,1 2,0 2,1 0,1 -1,2 0,3 1,0 1,-2 2,-1 0,1 0,1 1,1 0,0 0,-1 1,-1 0,0 1,-1 1,0 1,-1 1,0 2,0 0,0 1,1 1,0 1,0 1,0 2,1 1,0 1,1 1,1 2,0 3,0 4,2 0,0 -1,1 0,1 1,-1 2,1 4,1 1,0 1,1 2,1 0,1 0,2 0,2 -1,1 -3,2 -2,3 -1,1 -1,2 -2,3 -1,1 -1,0 -2,0 -1,1 -2,1 -2,2 0,1 -1,1 -1,2 -1,0 -2,2 -3,1 -1,1 0,2 -1,2 0,1 -2,0 -2,1 0,0 -1,0 -1,1l0 0c0,0 0,1 -1,1 0,1 0,1 0,1 -1,1 -1,1 -1,2 -1,0 -1,1 -1,1 1,0 1,0 1,1 -1,1 -1,0 -2,-1 0,-1 0,-2 0,-3 0,-1 1,-1 1,-2 0,-1 0,-2 1,-3 0,0 1,-1 1,-3 0,-1 1,-2 1,-3 0,-2 0,-2 -1,-3 -1,0 -2,-1 -1,-1 -1,-2 -1,-3 -2,-4 -1,0 1,-1 0,-1 0,-1 0,-2 0,-2 1,0 2,-1 1,-2 0,-1 0,-1 0,-1 -1,0 -1,1 -1,1 -1,-1 -2,-2 -3,-3 0,-1 -2,0 -3,-1 0,0 -2,-1 -3,-1 0,0 -1,-1 -2,-1 1,-2 0,-2 -1,-4 0,0 0,0 0,0 0,1 0,2 0,2 0,0 0,0 0,0 -1,0 -1,-1 -2,-2 0,0 1,0 0,-1 -1,0 0,-1 0,-1l-1 0c0,0 0,-1 0,-1 -2,-3 1,-4 1,-6 -1,-1 -1,-1 0,-2 0,0 -1,0 -1,0l0 0c-1,0 0,-1 0,-1l0 -2c0,-1 -2,0 -2,0 -1,0 -1,0 -2,1 0,0 0,0 -1,0 0,0 1,-1 1,-1 2,-2 4,-4 6,-6 0,0 0,1 0,1 1,0 2,1 3,0 1,0 2,1 2,0 0,0 -1,0 -1,-1 1,0 1,-1 2,-1 0,1 1,1 1,2 0,0 0,0 1,1 0,0 0,-1 0,-1 0,0 -1,-1 0,-1 0,-1 1,0 1,-1 0,1 0,1 0,1l1 -1c-1,0 -2,0 -2,0 -1,0 -1,0 -1,0 -1,0 -1,0 -1,0 0,-1 0,-1 0,-1 1,0 1,-1 1,-1l1 1c0,0 0,-1 0,-1 0,0 1,1 1,0 0,0 0,-1 0,-1 1,0 1,0 1,0 1,0 2,0 3,0l-1 -1 1 0z"/>
  <path class="fil3" d="M154 88l0 -3 2 0c1,0 2,0 2,1 0,2 -2,2 -3,2l-1 0zm2 0c1,0 2,0 2,-2 0,-1 -1,-1 -2,-1l-3 0 0 6 1 0 0 -3 1 0 2 3 1 0 -2 -3zm-1 6c4,0 6,-3 6,-6 0,-3 -2,-6 -6,-6 -3,0 -6,3 -6,6 0,3 3,6 6,6zm0 -1c-3,0 -5,-2 -5,-5 0,-3 2,-5 5,-5 3,0 6,2 6,5 0,3 -3,5 -6,5z"/>
  <path class="fil1" d="M22 88c-3,-2 -7,-5 -10,-9 -7,-8 -12,-17 -12,-26 0,-4 3,-10 7,-15 6,-8 15,-17 20,-21 3,-2 4,-2 5,-2 1,0 4,0 6,3 4,3 10,9 16,15 5,7 9,14 9,20 0,9 -4,18 -10,24 -6,7 -13,12 -17,14 -2,1 -3,1 -4,1 -3,0 -6,-2 -10,-4zm13 2l0 0c1,-1 3,-2 4,-3 3,-2 7,-4 10,-8 7,-7 13,-16 13,-26 0,-5 -4,-13 -9,-19 -5,-6 -12,-12 -16,-15l1 -1 -1 1c-2,-2 -4,-3 -5,-3 0,0 -2,1 -4,2 -5,4 -14,13 -20,20 -4,6 -7,11 -7,15 0,6 3,13 7,19 4,6 10,12 15,15 3,2 7,4 9,3 1,0 2,0 3,0z"/>
  <path class="fil1" d="M79 91c-1,-1 -2,-1 -3,-2 -2,-2 -4,-5 -6,-8 -4,-7 -8,-17 -8,-28 0,-4 2,-11 5,-17 3,-6 6,-12 9,-16 1,-2 2,-3 3,-4 0,0 1,-1 2,-1l0 0c1,0 1,0 2,1 1,1 2,2 2,3l0 0 0 0c6,6 14,21 14,34 0,8 -2,17 -5,24 -4,6 -7,12 -11,14 0,0 -1,1 -2,1 -1,0 -1,-1 -2,-1zm1 -74l0 0c-1,1 -2,2 -3,4 -3,3 -6,9 -9,16 -3,6 -5,12 -5,16 0,10 3,18 7,24 3,7 7,11 9,13 1,0 2,0 2,0 0,0 1,0 2,0 0,-1 1,-2 2,-3 2,-2 4,-5 6,-8 4,-7 7,-17 7,-26 0,-12 -9,-27 -14,-33 0,-2 -1,-2 -2,-3 0,0 -1,-1 -1,-1l0 0 0 0c0,0 -1,1 -1,1z"/>
  <path class="fil1" d="M120 88c-3,-2 -7,-5 -10,-9 -7,-7 -12,-16 -12,-26 0,-6 4,-13 9,-19 5,-6 11,-12 16,-16 2,-1 3,-2 4,-2 1,-1 2,-1 3,-1l0 0c1,0 2,1 3,1 2,1 3,2 4,3l0 1 0 -1c5,4 11,10 16,16 5,6 8,13 8,18 0,8 -3,16 -8,22 -4,6 -10,11 -15,14 -3,2 -6,3 -8,3 -3,0 -6,-1 -10,-4zm17 0l0 0c4,-2 7,-5 11,-8 6,-7 12,-16 12,-27 0,-4 -3,-11 -8,-17 -5,-6 -11,-12 -15,-16 -2,-1 -3,-2 -4,-3 -1,0 -2,-1 -3,-1l0 0c-1,0 -2,1 -3,1 -1,0 -2,1 -3,2 -5,4 -11,9 -16,16 -5,6 -9,13 -9,18 0,7 3,14 7,20 4,6 10,11 15,14 3,2 6,4 9,3 1,1 4,0 7,-2z"/>
  <polygon class="fil1" points="183,0 186,0 186,115 183,115 "/>
  <path class="fil4" d="M233 21l-6 24 -5 0 -4 -16 -3 16 -6 0 -6 -24 6 0c1,6 2,11 4,17l3 -17 5 0 4 17c1,-6 3,-11 4,-17l4 0z"/>
  <path class="fil4" d="M244 46c-3,0 -6,-1 -7,-4 -2,-2 -3,-5 -3,-9 0,-3 1,-6 3,-9 1,-2 4,-3 7,-3 3,0 6,1 7,4 2,2 3,5 3,8 0,4 -1,7 -3,9 -1,3 -4,4 -7,4zm0 -20c-3,0 -4,2 -4,7 0,6 1,8 4,8 3,0 4,-2 4,-8 0,-2 0,-7 -4,-7z"/>
  <path class="fil4" d="M263 36l0 9 -6 0 0 -24 10 0c3,0 6,1 8,4 1,1 1,2 1,4 0,2 -1,5 -4,6l4 10 -6 0 -3 -9 -4 0zm0 -10l0 0 0 6 3 0c2,0 4,-1 4,-3 0,-3 -2,-3 -4,-3l-3 0z"/>
  <polygon class="fil4" points="286,41 295,41 295,45 280,45 280,21 286,21 "/>
  <path class="fil4" d="M297 21c7,0 14,-1 18,6 1,1 1,4 1,6 0,13 -9,12 -19,12l0 -24zm6 5l0 0 0 15c5,0 8,-2 8,-8 0,-2 -1,-5 -3,-6 -2,-1 -4,-1 -5,-1z"/>
  <polygon class="fil4" points="343,21 343,26 337,26 337,45 332,45 332,26 326,26 326,21 "/>
  <path class="fil4" d="M351 36l0 9 -6 0 0 -24 10 0c2,0 4,1 5,1 1,0 2,1 3,3 1,1 1,2 1,4 0,2 -1,5 -4,6l4 10 -6 0 -3 -9 -4 0zm0 -10l0 0 0 6c2,0 5,0 7,-2 0,0 0,-1 0,-1 0,-4 -4,-3 -7,-3z"/>
  <path class="fil4" d="M379 21l8 24 -6 0 -2 -4 -7 0 -2 4 -4 0 7 -24 6 0zm-6 15l5 0 -2 -8 -3 8z"/>
  <path class="fil4" d="M389 21l7 0c3,0 5,1 6,2 2,0 3,2 4,4 1,1 2,4 2,6 0,4 -1,7 -3,9 -2,2 -5,3 -8,3l-8 0 0 -24zm5 5l0 15 3 0c4,0 5,-4 5,-8 0,-2 0,-5 -2,-6 -2,-1 -4,-1 -6,-1z"/>
  <polygon class="fil4" points="428,26 417,26 417,31 426,31 426,35 417,35 417,41 428,41 428,45 411,45 411,21 428,21 "/>
  <path class="fil4" d="M458 30l-5 1c0,-4 -2,-5 -4,-5 -3,0 -4,2 -4,7 0,4 0,8 4,8 2,0 4,-1 4,-4l5 0c0,5 -4,9 -9,9 -7,0 -10,-6 -10,-13 0,-6 3,-12 10,-12 6,0 9,3 9,9z"/>
  <polygon class="fil4" points="478,26 467,26 467,31 476,31 476,35 467,35 467,41 478,41 478,45 461,45 461,21 478,21 "/>
  <path class="fil4" d="M499 21l0 24 -5 0 -9 -16c0,1 0,1 0,2l0 14 -4 0 0 -24 6 0 8 15c0,-1 0,-2 0,-2l0 -13 4 0z"/>
  <polygon class="fil4" points="518,21 518,26 512,26 512,45 507,45 507,26 501,26 501,21 "/>
  <polygon class="fil4" points="537,26 526,26 526,31 534,31 534,35 526,35 526,41 537,41 537,45 520,45 520,21 537,21 "/>
  <path class="fil4" d="M545 36l0 9 -5 0 0 -24 10 0c2,0 3,1 5,1 1,0 2,1 2,3 1,1 1,2 1,4 0,2 -1,5 -4,6l5 10 -6 0 -4 -9 -4 0zm0 -10l0 6 4 0c1,0 2,0 3,-2 1,-1 1,-2 0,-3 -1,-2 -2,-1 -3,-1l-4 0z"/>
  <polygon class="fil1" points="216,81 210,62 210,81 206,81 206,57 214,57 218,72 222,57 231,57 231,81 225,81 225,62 219,81 "/>
  <path class="fil1" d="M244 82c-7,0 -10,-7 -10,-13 0,-6 3,-12 10,-12 7,0 10,6 10,12 0,7 -3,13 -10,13zm0 -20c-3,0 -4,2 -4,7 0,6 1,8 4,8 3,0 4,-2 4,-8 0,-2 0,-7 -4,-7z"/>
  <path class="fil1" d="M273 63l-4 1c-1,-2 -2,-3 -4,-3 -2,0 -3,1 -3,3 0,1 1,2 3,2 4,1 9,2 9,8 0,5 -5,8 -10,8 -4,0 -8,-2 -9,-7l5 -1c1,2 2,3 5,3 1,0 3,0 3,-2 0,-3 -7,-3 -10,-6 -3,-2 -2,-7 0,-10 5,-4 13,-3 15,4z"/>
  <path class="fil1" d="M296 66l-6 1c0,-4 -1,-5 -4,-5 -2,0 -4,2 -4,7 0,4 0,8 5,8 2,0 3,-1 4,-4l5 0c-1,5 -4,9 -9,9 -8,0 -11,-6 -11,-13 0,-6 3,-12 11,-12 5,0 8,3 9,9z"/>
  <path class="fil1" d="M308 82c-7,0 -10,-7 -10,-13 0,-6 3,-12 10,-12 7,0 10,6 10,12 0,7 -3,13 -10,13zm0 -20c-4,0 -4,5 -4,7 0,6 1,8 4,8 3,0 4,-2 4,-8 0,-5 -1,-7 -4,-7z"/>
  <path class="fil1" d="M348 57l-6 24 -5 0 -4 -16 -3 16 -6 0 -5 -24 5 0 3 15c0,1 0,1 1,2l3 -17 5 0 4 17c2,-6 3,-11 4,-17l4 0z"/>
 </g>
</svg>
